<?xml version="1.0" encoding="UTF-8" standalone="no"?>
<!DOCTYPE svg PUBLIC "-//W3C//DTD SVG 1.1//EN" "http://www.w3.org/Graphics/SVG/1.1/DTD/svg11.dtd">
<svg xmlns:xl="http://www.w3.org/1999/xlink" xmlns:dc="http://purl.org/dc/elements/1.1/" version="1.1" xmlns="http://www.w3.org/2000/svg" viewBox="2133.3103 160.50606 272.1458 274.02913" width="272.1458" height="274.02913">
  <defs/>
  <metadata> Produced by OmniGraffle 7.18.1\n2021-02-15 23:08:36 +0000</metadata>
  <g id="Canvas_1" stroke="none" fill-opacity="1" stroke-dasharray="none" stroke-opacity="1" fill="none">
    <title>Canvas 1</title>
    <g id="Canvas_1_Layer_1">
      <title>Layer 1</title>
      <g id="Graphic_512">
        <path d="M 2397.0388 178.59126 C 2389.642 169.73504 2378.7657 164.52493 2367.2288 164.31126 C 2358.2329 164.08992 2349.425 166.90842 2342.2288 172.31126 C 2329.0155 182.00088 2323.9342 199.34288 2329.8288 214.63126 C 2316.2988 226.63126 2296.2088 244.96126 2294.6188 246.39126 C 2293.4788 247.39126 2282.3488 257.29126 2271.2888 267.21126 C 2261.8727 256.28533 2246.311 253.00917 2233.2888 259.21126 C 2232.5488 256.95126 2231.9788 255.21126 2231.8988 254.95126 C 2231.6188 254.09126 2226.7088 238.36126 2226.1888 237.49126 L 2225.7988 237.49126 C 2229.6995 233.7452 2230.725 227.90443 2228.334 223.0536 C 2225.9428 218.20276 2220.6856 215.45896 2215.3388 216.27126 C 2208.7085 217.2919 2204.0921 223.40045 2204.9202 230.05755 C 2205.7483 236.71466 2211.7205 241.5061 2218.3988 240.87126 C 2221.3988 245.87126 2226.3988 254.11126 2226.7588 254.73126 C 2226.9588 255.07126 2228.5188 257.73126 2230.3788 260.80126 C 2219.3092 267.55068 2213.3905 280.29967 2215.3788 293.11126 C 2210.7488 292.86126 2179.8688 292.06126 2179.7688 292.30126 C 2175.6185 282.6318 2165.7057 276.74234 2155.2288 277.72126 C 2143.0244 278.89093 2133.617 288.9926 2133.3176 301.24927 C 2133.0184 313.50595 2141.9216 324.05472 2154.0544 325.81866 C 2166.1871 327.5826 2177.7256 320.00575 2180.9288 308.17126 C 2192.1588 306.17126 2210.6388 302.64126 2212.0288 302.38126 L 2217.8688 301.32126 C 2222.933 312.6141 2234.055 319.9743 2246.4288 320.22126 C 2246.9888 329.08126 2247.5488 337.17126 2247.5988 338.10126 C 2247.7188 340.02126 2249.3788 371.37126 2250.2288 379.57126 C 2237.7555 386.46667 2232.0504 401.3352 2236.7097 414.8045 C 2241.369 428.27377 2255.042 436.439 2269.11 434.15324 C 2283.1778 431.86747 2293.5623 419.79336 2293.7175 405.5418 C 2293.8727 391.29026 2283.7536 378.99286 2269.7388 376.40126 C 2265.8088 363.07126 2259.7388 343.20126 2259.2288 341.64126 C 2258.8988 340.54126 2255.8888 330.28126 2252.7388 319.74126 C 2262.114 318.05787 2270.2556 312.2942 2274.9588 304.01126 C 2277.9588 305.51126 2281.2588 307.10126 2281.5788 307.25126 C 2282.1688 307.55126 2292.9888 313.01126 2293.7188 313.18126 L 2293.9288 312.99126 C 2293.903 317.44715 2297.0976 321.27075 2301.487 322.0378 C 2305.8765 322.80485 2310.1784 320.29126 2311.6654 316.0907 C 2313.1523 311.89014 2311.3898 307.22984 2307.4953 305.06452 C 2303.6008 302.8992 2298.712 303.8615 2295.9288 307.34126 C 2291.7588 306.34126 2284.8488 304.78126 2284.3188 304.66126 C 2283.7888 304.54126 2279.5388 303.52126 2275.6988 302.66126 C 2277.963 298.1811 2279.1414 293.23107 2279.1388 288.21126 C 2279.1398 283.19483 2277.9615 278.24843 2275.6988 273.77126 C 2286.3188 267.87126 2296.2488 262.31126 2297.3488 261.70126 C 2299.7688 260.37126 2342.7688 237.13126 2347.0188 234.05126 C 2360.8944 241.66752 2377.9366 240.49543 2390.6388 231.05126 C 2398.711 225.1334 2403.977 216.14134 2405.1892 206.20598 C 2406.4012 196.27061 2403.4515 186.27623 2397.0388 178.59126 Z" fill="#f19c12"/>
      </g>
      <g id="Graphic_513"/>
      <g id="Graphic_514"/>
      <g id="Graphic_515"/>
      <g id="Graphic_516"/>
      <g id="Graphic_517"/>
      <g id="Graphic_518"/>
      <g id="Graphic_519"/>
      <g id="Graphic_520"/>
      <g id="Graphic_521"/>
      <g id="Graphic_522"/>
      <g id="Graphic_523"/>
      <g id="Graphic_524"/>
      <g id="Graphic_525"/>
      <g id="Graphic_526"/>
      <g id="Graphic_527"/>
      <g id="Graphic_528"/>
      <g id="Graphic_529"/>
      <g id="Graphic_530"/>
      <g id="Graphic_531"/>
      <g id="Graphic_532"/>
      <g id="Graphic_533"/>
      <g id="Graphic_534"/>
      <g id="Graphic_535"/>
      <g id="Graphic_536"/>
      <g id="Graphic_537"/>
      <g id="Graphic_538"/>
      <g id="Graphic_539"/>
      <g id="Graphic_540"/>
      <g id="Graphic_541"/>
      <g id="Graphic_542"/>
      <g id="Graphic_543"/>
      <g id="Graphic_544"/>
      <g id="Graphic_545"/>
      <g id="Graphic_546"/>
      <g id="Graphic_547"/>
      <g id="Graphic_548"/>
      <g id="Graphic_549"/>
      <g id="Graphic_550"/>
      <g id="Graphic_551">
        <path d="M 2366.5688 247.02126 C 2360.0024 247.01976 2353.5033 245.69683 2347.4588 243.13126 C 2342.0988 246.27126 2330.4588 252.78126 2304.1788 267.05126 L 2301.1788 268.68126 C 2300.8488 268.85126 2299.7588 269.47126 2298.1088 270.39126 L 2285.6188 277.39126 C 2287.393 283.7561 2287.575 290.45954 2286.1488 296.91126 L 2286.9488 297.10126 C 2288.3888 297.42126 2291.0988 298.04126 2293.7588 298.66126 C 2299.8993 294.73168 2307.8547 295.1217 2313.5813 299.6331 C 2319.308 304.14447 2321.5494 311.7875 2319.1665 318.67724 C 2316.7836 325.56697 2310.299 330.19193 2303.0088 330.20126 C 2301.2014 330.20475 2299.4052 329.91775 2297.6888 329.35126 C 2292.663 327.7258 2288.6742 323.86266 2286.8888 318.89126 C 2285.0688 318.00126 2282.4588 316.71126 2278.6688 314.80126 L 2277.9788 314.45126 L 2277.5088 314.22126 C 2273.4688 318.96748 2268.3725 322.70065 2262.6288 325.12126 C 2264.0088 329.79126 2265.2288 333.90126 2265.9988 336.52126 L 2266.8388 339.37126 L 2267.6988 342.16126 C 2269.3888 347.70126 2273.0588 359.71126 2276.0788 369.82126 C 2285.8896 373.0664 2293.9146 380.2361 2298.2402 389.6208 C 2302.5657 399.0055 2302.8042 409.7641 2298.8988 419.33126 L 2299.1188 419.33126 C 2303.2218 418.38943 2307.2738 417.2379 2311.2588 415.88126 C 2313.2588 415.21126 2315.2088 414.50126 2317.1388 413.73126 C 2319.0688 412.96126 2320.9988 412.16126 2322.8888 411.30126 C 2324.7788 410.44126 2326.6388 409.55126 2328.4788 408.61126 C 2330.3188 407.67126 2332.1388 406.68126 2333.9188 405.61126 C 2337.4988 403.56126 2340.9188 401.33126 2344.3088 398.95126 C 2347.6988 396.57126 2350.8788 394.04126 2353.9788 391.36126 C 2355.5188 390.02126 2357.0388 388.64126 2358.5188 387.23126 C 2359.9988 385.82126 2361.4488 384.36126 2362.8688 382.88126 C 2364.2888 381.40126 2365.6588 379.88126 2366.9988 378.34126 C 2368.3388 376.80126 2369.6388 375.21126 2370.9088 373.60126 C 2372.1788 371.99126 2373.4088 370.34126 2374.5888 368.67126 C 2375.7688 367.00126 2376.9288 365.29126 2378.0388 363.56126 C 2378.5988 362.70126 2379.1388 361.82126 2379.6788 360.94126 C 2380.7488 359.18126 2381.7788 357.40126 2382.7588 355.58126 C 2383.7388 353.76126 2384.6888 351.93126 2385.5888 350.06126 C 2386.9222 347.26793 2388.1688 344.4146 2389.3288 341.50126 C 2389.7088 340.50126 2390.0788 339.56126 2390.4388 338.58126 C 2391.1588 336.62126 2391.8255 334.63793 2392.4388 332.63126 C 2400.1053 307.83703 2400.1053 281.3055 2392.4388 256.51126 C 2391.8122 254.51126 2391.1455 252.52793 2390.4388 250.56126 C 2390.0788 249.56126 2389.7088 248.56126 2389.3288 247.64126 C 2388.6488 245.90126 2387.9188 244.18126 2387.1588 242.48126 C 2380.7168 245.50192 2373.6838 247.05267 2366.5688 247.02126 Z" fill="#f7ce50"/>
      </g>
      <g id="Graphic_552">
        <path d="M 2184.5488 284.29126 C 2190.2288 284.38126 2199.9288 284.61126 2207.1588 284.82126 C 2207.9667 274.86445 2212.5021 265.5792 2219.8588 258.82126 C 2219.7588 258.66126 2219.5688 258.35126 2219.3188 257.92126 C 2218.2488 256.16126 2215.8788 252.27126 2213.7188 248.68126 C 2205.0159 247.14923 2198.2873 240.19054 2197.0488 231.44098 C 2195.8102 222.69142 2200.343 214.13862 2208.2788 210.25126 C 2210.1252 209.34723 2212.0974 208.72692 2214.1288 208.41126 L 2222.4588 208.85126 C 2228.5448 210.47682 2233.5413 214.81778 2236.0013 220.61696 C 2238.4612 226.41613 2238.1098 233.02562 2235.0488 238.53126 C 2235.7788 240.75126 2236.8488 244.06126 2238.4288 249.08126 C 2249.97 246.54496 2262.0425 249.22285 2271.4288 256.40126 C 2277.5088 250.97126 2283.0688 246.02126 2286.4288 243.05126 L 2289.3188 240.47126 L 2291.9488 238.08126 C 2297.6788 232.88126 2310.2388 221.49126 2320.6988 212.08126 C 2317.9427 200.86542 2319.6986 189.01587 2325.5888 179.08126 L 2322.9588 177.86126 C 2321.0655 177.00126 2319.1488 176.19126 2317.2088 175.43126 C 2315.2788 174.66126 2313.3188 173.95126 2311.3288 173.28126 C 2307.3438 171.92461 2303.2918 170.7731 2299.1888 169.83126 C 2297.1222 169.35126 2295.0388 168.9246 2292.9388 168.55126 C 2291.9388 168.36126 2290.8288 168.19126 2289.7688 168.02126 C 2287.6488 167.70126 2285.5155 167.43126 2283.3688 167.21126 C 2274.6643 166.33127 2265.8933 166.33127 2257.1888 167.21126 C 2255.0422 167.43126 2252.9088 167.70126 2250.7888 168.02126 C 2249.7288 168.19126 2248.6688 168.36126 2247.6188 168.55126 C 2245.5188 168.9246 2243.4355 169.35126 2241.3688 169.83126 C 2237.2662 170.76653 2233.2143 171.91136 2229.2288 173.26126 C 2227.2288 173.93126 2225.2788 174.64126 2223.3488 175.41126 C 2221.4188 176.18126 2219.4888 176.98126 2217.5988 177.84126 C 2215.7088 178.70126 2213.8488 179.59126 2212.0088 180.53126 C 2210.1688 181.47126 2208.3488 182.46126 2206.5688 183.53126 C 2202.9888 185.58126 2199.5688 187.81126 2196.1788 190.19126 C 2192.7888 192.57126 2189.6088 195.10126 2186.5088 197.78126 C 2184.9688 199.12126 2183.4488 200.50126 2181.9688 201.91126 C 2180.4888 203.32126 2179.0388 204.78126 2177.6188 206.26126 C 2176.1988 207.74126 2174.8288 209.26126 2173.4888 210.80126 C 2172.1488 212.34126 2170.8488 213.93126 2169.5788 215.54126 C 2168.3088 217.15126 2167.0788 218.80126 2165.8988 220.47126 C 2164.7188 222.14126 2163.5588 223.85126 2162.4488 225.58126 C 2161.8888 226.44126 2161.3488 227.32126 2160.8088 228.20126 C 2159.7388 229.96126 2158.7088 231.74126 2157.7288 233.56126 C 2156.7488 235.38126 2155.7988 237.21126 2154.8988 239.08126 C 2153.5655 241.8746 2152.3188 244.72793 2151.1588 247.64126 C 2150.7788 248.64126 2150.4088 249.58126 2150.0488 250.56126 C 2149.3288 252.52126 2148.6622 254.5046 2148.0488 256.51126 C 2146.5264 261.43332 2145.301 266.44233 2144.3788 271.51126 C 2147.6211 270.32138 2151.0556 269.74163 2154.5088 269.80126 C 2169.2288 269.53126 2176.2288 273.53126 2184.5488 284.29126 Z" fill="#f7ce50"/>
      </g>
      <g id="Graphic_553">
        <path d="M 2227.8588 412.80126 C 2224.8833 398.70107 2230.342 384.15344 2241.8588 375.49126 C 2241.2088 366.92126 2240.3888 352.29126 2239.7688 341.13126 C 2239.6988 339.76126 2239.6488 338.86126 2239.6288 338.59126 C 2239.6088 338.32126 2239.5488 337.38126 2239.4588 335.98126 C 2239.3188 333.98126 2239.1088 330.88126 2238.8788 327.37126 C 2228.557 325.16894 2219.51 319.00825 2213.6788 310.21126 L 2213.4988 310.21126 L 2211.1788 310.65126 C 2206.6288 311.51126 2195.6988 313.59126 2186.8588 315.20126 C 2182.0505 325.64353 2172.0688 332.7559 2160.6288 333.89126 C 2159.6288 333.99126 2158.5588 334.04126 2157.5288 334.04126 C 2154.3112 334.039 2151.1122 333.5536 2148.0388 332.60126 C 2148.6588 334.60126 2149.3188 336.60126 2150.0388 338.51126 C 2150.3988 339.51126 2150.7688 340.51126 2151.1488 341.43126 C 2152.2888 344.3446 2153.5355 347.19793 2154.8888 349.99126 C 2155.7822 351.8846 2156.7122 353.73126 2157.6788 355.53126 C 2158.6788 357.35126 2159.6788 359.13126 2160.7588 360.89126 C 2161.2988 361.77126 2161.8388 362.65126 2162.3988 363.51126 C 2163.5122 365.2446 2164.6622 366.94793 2165.8488 368.62126 C 2167.0355 370.2946 2168.2622 371.93126 2169.5288 373.53126 C 2170.7955 375.1446 2172.0988 376.7246 2173.4388 378.27126 C 2174.7788 379.81126 2176.1588 381.33126 2177.5688 382.81126 C 2178.9788 384.29126 2180.4388 385.74126 2181.9188 387.16126 C 2183.3988 388.58126 2184.9188 389.95126 2186.4588 391.29126 C 2189.5588 393.97126 2192.7888 396.51126 2196.1288 398.88126 C 2199.4688 401.25126 2202.9388 403.49126 2206.5188 405.54126 C 2208.2988 406.54126 2210.1188 407.54126 2211.9588 408.54126 C 2213.7988 409.54126 2215.6588 410.38126 2217.5488 411.23126 C 2219.4388 412.08126 2221.3588 412.90126 2223.2988 413.66126 C 2225.0288 414.35126 2226.7788 414.99126 2228.5488 415.60126 C 2228.2888 414.67126 2228.0488 413.75126 2227.8588 412.80126 Z" fill="#f7ce50"/>
      </g>
      <g id="Graphic_554">
        <path d="M 2147.9788 256.47126 C 2148.6055 254.47126 2149.2722 252.48793 2149.9788 250.52126 C 2150.3388 249.52126 2150.7088 248.52126 2151.0888 247.60126 C 2152.2288 244.68793 2153.4755 241.8346 2154.8288 239.04126 C 2155.7622 237.16793 2156.7122 235.33126 2157.6788 233.53126 C 2158.6788 231.71126 2159.6788 229.93126 2160.7588 228.17126 C 2161.2988 227.29126 2161.8388 226.41126 2162.3988 225.55126 C 2163.5122 223.8246 2164.6622 222.12126 2165.8488 220.44126 C 2167.0355 218.76126 2168.2622 217.1246 2169.5288 215.53126 C 2170.7955 213.9246 2172.0988 212.3446 2173.4388 210.79126 C 2174.7788 209.25126 2176.1588 207.73126 2177.5688 206.25126 C 2178.9788 204.77126 2180.4388 203.32126 2181.9188 201.90126 C 2183.3988 200.48126 2184.9188 199.11126 2186.4588 197.77126 C 2189.5588 195.09126 2192.7888 192.55126 2196.1288 190.18126 C 2199.4688 187.81126 2202.9388 185.53126 2206.5188 183.53126 C 2208.2988 182.53126 2210.1188 181.53126 2211.9588 180.53126 C 2213.7988 179.53126 2215.6588 178.69126 2217.5488 177.84126 C 2219.4388 176.99126 2221.3588 176.17126 2223.2988 175.41126 C 2225.2388 174.65126 2227.2288 173.93126 2229.2288 173.26126 C 2233.214 171.90461 2237.266 170.7531 2241.3688 169.81126 C 2243.4355 169.33126 2245.5188 168.9046 2247.6188 168.53126 C 2248.6188 168.34126 2249.7288 168.17126 2250.7888 168.00126 C 2252.9088 167.68126 2255.0422 167.41126 2257.1888 167.19126 C 2265.8933 166.31127 2274.6643 166.31127 2283.3688 167.19126 C 2285.5155 167.41126 2287.6488 167.68126 2289.7688 168.00126 C 2290.8288 168.17126 2291.8888 168.34126 2292.9388 168.53126 C 2295.0388 168.9046 2297.1222 169.33126 2299.1888 169.81126 C 2303.2918 170.7531 2307.3438 171.90461 2311.3288 173.26126 C 2313.3288 173.93126 2315.2788 174.64126 2317.2088 175.41126 C 2319.1388 176.18126 2321.0688 176.98126 2322.9588 177.84126 L 2325.5888 179.06126 C 2326.6275 177.31811 2327.7835 175.6476 2329.0488 174.06126 C 2290.5977 155.3208 2245.513 156.04832 2207.6867 176.01967 C 2169.8602 195.99103 2143.8309 232.80983 2137.6188 275.13126 C 2139.6614 273.59617 2141.9146 272.3635 2144.3088 271.47126 C 2145.231 266.40233 2146.4564 261.39332 2147.9788 256.47126 Z" fill="#f19c12"/>
      </g>
      <g id="Graphic_555">
        <path d="M 2223.2988 413.65126 C 2221.3588 412.89126 2219.4422 412.08126 2217.5488 411.22126 C 2215.6555 410.36126 2213.7922 409.4646 2211.9588 408.53126 C 2210.1188 407.58126 2208.2988 406.60126 2206.5188 405.53126 C 2202.9388 403.48126 2199.5188 401.25126 2196.1288 398.87126 C 2192.7388 396.49126 2189.5588 393.96126 2186.4588 391.28126 C 2184.9188 389.94126 2183.3988 388.56126 2181.9188 387.15126 C 2180.4388 385.74126 2178.9888 384.28126 2177.5688 382.80126 C 2176.1488 381.32126 2174.7788 379.80126 2173.4388 378.26126 C 2172.0988 376.72126 2170.7988 375.13126 2169.5288 373.52126 C 2168.2588 371.91126 2167.0288 370.26126 2165.8488 368.59126 C 2164.6688 366.92126 2163.5088 365.21126 2162.3988 363.48126 C 2161.8388 362.62126 2161.2988 361.74126 2160.7588 360.86126 C 2159.6888 359.10126 2158.6588 357.32126 2157.6788 355.50126 C 2156.6988 353.68126 2155.7488 351.85126 2154.8488 349.98126 C 2153.5155 347.18793 2152.2688 344.3346 2151.1088 341.42126 C 2150.7288 340.42126 2150.3588 339.48126 2149.9988 338.50126 C 2149.2788 336.55126 2148.6188 334.58126 2147.9988 332.59126 C 2145.4715 331.81166 2143.05 330.72345 2140.7888 329.35126 C 2152.9122 374.07356 2187.2068 409.4035 2231.5488 422.85126 C 2230.2962 420.52956 2229.2907 418.08283 2228.5488 415.55126 C 2226.7788 414.98126 2225.0288 414.34126 2223.2988 413.65126 Z" fill="#f19c12"/>
      </g>
      <g id="Graphic_556">
        <path d="M 2389.3488 247.60126 C 2389.7288 248.60126 2390.0988 249.54126 2390.4588 250.52126 C 2391.1788 252.48126 2391.8455 254.4646 2392.4588 256.47126 C 2400.1253 281.2655 2400.1253 307.79703 2392.4588 332.59126 C 2391.8322 334.59126 2391.1655 336.5746 2390.4588 338.54126 C 2390.0988 339.54126 2389.7288 340.54126 2389.3488 341.46126 C 2388.2088 344.3746 2386.9622 347.22793 2385.6088 350.02126 C 2384.6888 351.8946 2383.7455 353.73126 2382.7788 355.53126 C 2381.7788 357.35126 2380.7788 359.13126 2379.6988 360.89126 C 2379.1588 361.77126 2378.6188 362.65126 2378.0588 363.51126 C 2376.9522 365.2446 2375.8022 366.94793 2374.6088 368.62126 C 2373.4155 370.2946 2372.1888 371.93126 2370.9288 373.53126 C 2369.6622 375.1446 2368.3588 376.7246 2367.0188 378.27126 C 2365.6788 379.81126 2364.2988 381.33126 2362.8888 382.81126 C 2361.4788 384.29126 2360.0188 385.74126 2358.5388 387.16126 C 2357.0588 388.58126 2355.5388 389.95126 2353.9988 391.29126 C 2350.8988 393.97126 2347.6688 396.51126 2344.3288 398.88126 C 2340.9888 401.25126 2337.5188 403.53126 2333.9388 405.53126 C 2332.1588 406.53126 2330.3388 407.53126 2328.4988 408.53126 C 2326.6588 409.53126 2324.7988 410.37126 2322.9088 411.22126 C 2321.0188 412.07126 2319.0988 412.89126 2317.1588 413.65126 C 2315.2188 414.41126 2313.2688 415.13126 2311.2788 415.80126 C 2307.2938 417.1579 2303.2418 418.30943 2299.1388 419.25126 L 2298.9188 419.25126 C 2297.9174 421.6772 2296.6674 423.9929 2295.1888 426.16126 C 2335.477 418.4618 2370.0314 392.7591 2388.992 356.38717 C 2407.9526 320.01524 2409.237 276.969 2392.4788 239.53126 C 2390.7758 240.6248 2389.0056 241.61008 2387.1788 242.48126 C 2387.9388 244.14126 2388.6688 245.86126 2389.3488 247.60126 Z" fill="#f19c12"/>
      </g>
      <g id="Graphic_557">
        <path d="M 2288.9688 421.16126 L 2289.7188 421.06126 Z" fill="white"/>
      </g>
      <g id="Graphic_558">
        <path d="M 2228.5488 415.59126 L 2229.1788 415.80126 Z" fill="white"/>
      </g>
    </g>
  </g>
</svg>
