<?xml version="1.0" encoding="UTF-8" standalone="no"?>
<!DOCTYPE svg PUBLIC "-//W3C//DTD SVG 1.1//EN" "http://www.w3.org/Graphics/SVG/1.1/DTD/svg11.dtd">
<svg xmlns:xl="http://www.w3.org/1999/xlink" xmlns:dc="http://purl.org/dc/elements/1.1/" version="1.1" xmlns="http://www.w3.org/2000/svg" viewBox="518 162.4026 272.1458 274.02913" width="272.1458" height="274.02913">
  <defs/>
  <metadata> Produced by OmniGraffle 7.18.1\n2021-02-15 23:08:36 +0000</metadata>
  <g id="Canvas_1" stroke="none" fill-opacity="1" stroke-dasharray="none" stroke-opacity="1" fill="none">
    <title>Canvas 1</title>
    <g id="Canvas_1_Layer_1">
      <title>Layer 1</title>
      <g id="Graphic_55">
        <path d="M 781.7285 180.4878 C 774.3317 171.63159 763.4554 166.42147 751.9185 166.2078 C 742.9225 165.98647 734.1147 168.80497 726.9185 174.2078 C 713.7051 183.89743 708.6238 201.23942 714.5185 216.5278 C 700.9885 228.5278 680.8985 246.8578 679.3085 248.2878 C 678.1685 249.2878 667.0385 259.1878 655.9785 269.1078 C 646.56234 258.18187 631.0006 254.9057 617.9785 261.1078 C 617.2385 258.8478 616.6685 257.1078 616.5885 256.8478 C 616.3085 255.9878 611.3985 240.2578 610.8785 239.3878 L 610.4885 239.3878 C 614.3892 235.64175 615.41475 229.80098 613.0236 224.95014 C 610.6325 220.0993 605.3753 217.3555 600.0285 218.1678 C 593.3982 219.18844 588.7818 225.297 589.6099 231.9541 C 590.438 238.6112 596.4102 243.40264 603.0885 242.7678 C 606.0885 247.7678 611.0885 256.0078 611.4485 256.6278 C 611.6485 256.9678 613.2085 259.6278 615.0685 262.6978 C 603.9989 269.44723 598.0802 282.1962 600.0685 295.0078 C 595.4385 294.7578 564.5585 293.9578 564.4585 294.1978 C 560.30814 284.52834 550.3954 278.63888 539.9185 279.6178 C 527.7141 280.78747 518.3066 290.88913 518.0073 303.1458 C 517.70804 315.4025 526.6113 325.95127 538.74405 327.7152 C 550.87684 329.47914 562.4153 321.9023 565.6185 310.0678 C 576.8485 308.0678 595.3285 304.5378 596.7185 304.2778 L 602.5585 303.2178 C 607.6226 314.51066 618.74464 321.87083 631.1185 322.1178 C 631.6785 330.9778 632.2385 339.0678 632.2885 339.9978 C 632.4085 341.9178 634.0685 373.2678 634.9185 381.4678 C 622.4452 388.3632 616.74005 403.23175 621.39936 416.70103 C 626.0587 430.1703 639.73165 438.33555 653.7996 436.0498 C 667.8675 433.764 678.25195 421.6899 678.40716 407.43836 C 678.5624 393.1868 668.4433 380.8894 654.4285 378.2978 C 650.4985 364.9678 644.4285 345.0978 643.9185 343.5378 C 643.5885 342.4378 640.5785 332.1778 637.4285 321.6378 C 646.8036 319.9544 654.9453 314.19073 659.6485 305.9078 C 662.6485 307.4078 665.9485 308.9978 666.2685 309.1478 C 666.8585 309.4478 677.6785 314.9078 678.4085 315.0778 L 678.6185 314.8878 C 678.5927 319.3437 681.7873 323.1673 686.1767 323.93434 C 690.5662 324.7014 694.8681 322.1878 696.35504 317.98724 C 697.842 313.7867 696.07944 309.12638 692.18496 306.96106 C 688.2905 304.79575 683.4018 305.75803 680.6185 309.2378 C 676.4485 308.2378 669.5385 306.6778 669.0085 306.5578 C 668.4785 306.4378 664.2285 305.4178 660.3885 304.5578 C 662.6527 300.07763 663.8311 295.12762 663.8285 290.1078 C 663.8295 285.09138 662.65116 280.14497 660.3885 275.6678 C 671.0085 269.7678 680.9385 264.2078 682.0385 263.5978 C 684.4585 262.2678 727.4585 239.0278 731.7085 235.9478 C 745.5841 243.56407 762.6263 242.39197 775.3285 232.9478 C 783.4007 227.02995 788.66675 218.0379 789.8788 208.10252 C 791.0909 198.16716 788.14115 188.17278 781.7285 180.4878 Z" fill="#347da5"/>
      </g>
      <g id="Graphic_56"/>
      <g id="Graphic_57"/>
      <g id="Graphic_58"/>
      <g id="Graphic_59"/>
      <g id="Graphic_60"/>
      <g id="Graphic_61"/>
      <g id="Graphic_62"/>
      <g id="Graphic_63"/>
      <g id="Graphic_64"/>
      <g id="Graphic_65"/>
      <g id="Graphic_66"/>
      <g id="Graphic_67"/>
      <g id="Graphic_68"/>
      <g id="Graphic_69"/>
      <g id="Graphic_70"/>
      <g id="Graphic_71"/>
      <g id="Graphic_72"/>
      <g id="Graphic_73"/>
      <g id="Graphic_74"/>
      <g id="Graphic_75"/>
      <g id="Graphic_76"/>
      <g id="Graphic_77"/>
      <g id="Graphic_78"/>
      <g id="Graphic_79"/>
      <g id="Graphic_80"/>
      <g id="Graphic_81"/>
      <g id="Graphic_82"/>
      <g id="Graphic_83"/>
      <g id="Graphic_84"/>
      <g id="Graphic_85"/>
      <g id="Graphic_86"/>
      <g id="Graphic_87"/>
      <g id="Graphic_88"/>
      <g id="Graphic_89"/>
      <g id="Graphic_90"/>
      <g id="Graphic_91"/>
      <g id="Graphic_92"/>
      <g id="Graphic_93"/>
      <g id="Graphic_94"/>
      <g id="Graphic_95"/>
      <g id="Graphic_96"/>
      <g id="Graphic_97"/>
      <g id="Graphic_98"/>
      <g id="Graphic_99"/>
      <g id="Graphic_100"/>
      <g id="Graphic_101"/>
      <g id="Graphic_102">
        <path d="M 751.2585 248.9178 C 744.69205 248.9163 738.193 247.59337 732.1485 245.0278 C 726.7885 248.1678 715.1485 254.6778 688.8685 268.9478 L 685.8685 270.5778 C 685.5385 270.7478 684.4485 271.3678 682.7985 272.2878 L 670.3085 279.2878 C 672.0827 285.65264 672.26474 292.35608 670.8385 298.8078 L 671.6385 298.9978 C 673.0785 299.3178 675.7885 299.9378 678.4485 300.5578 C 684.589 296.62823 692.54435 297.01825 698.271 301.52964 C 703.9976 306.04102 706.2391 313.68404 703.8562 320.57378 C 701.4733 327.4635 694.9887 332.08848 687.6985 332.0978 C 685.8911 332.1013 684.0949 331.8143 682.3785 331.2478 C 677.3526 329.62236 673.36384 325.7592 671.5785 320.7878 C 669.7585 319.8978 667.1485 318.6078 663.3585 316.6978 L 662.6685 316.3478 L 662.1985 316.1178 C 658.15844 320.86402 653.06214 324.5972 647.3185 327.0178 C 648.6985 331.6878 649.9185 335.7978 650.6885 338.4178 L 651.5285 341.2678 L 652.3885 344.0578 C 654.0785 349.5978 657.7485 361.6078 660.7685 371.7178 C 670.5793 374.96293 678.6043 382.13263 682.92986 391.51733 C 687.2554 400.90203 687.4939 411.66064 683.5885 421.2278 L 683.8085 421.2278 C 687.9115 420.28597 691.96344 419.13446 695.9485 417.7778 C 697.9485 417.1078 699.8985 416.3978 701.8285 415.6278 C 703.7585 414.8578 705.6885 414.0578 707.5785 413.1978 C 709.4685 412.3378 711.3285 411.4478 713.1685 410.5078 C 715.0085 409.5678 716.8285 408.5778 718.6085 407.5078 C 722.1885 405.4578 725.6085 403.2278 728.9985 400.8478 C 732.3885 398.4678 735.5685 395.9378 738.6685 393.2578 C 740.2085 391.9178 741.7285 390.5378 743.2085 389.1278 C 744.6885 387.7178 746.1385 386.2578 747.5585 384.7778 C 748.9785 383.2978 750.3485 381.7778 751.6885 380.2378 C 753.0285 378.6978 754.3285 377.1078 755.5985 375.4978 C 756.8685 373.8878 758.0985 372.2378 759.2785 370.5678 C 760.4585 368.8978 761.6185 367.1878 762.7285 365.4578 C 763.2885 364.5978 763.8285 363.7178 764.3685 362.8378 C 765.4385 361.0778 766.4685 359.2978 767.4485 357.4778 C 768.4285 355.6578 769.3785 353.8278 770.2785 351.9578 C 771.6118 349.16447 772.8585 346.31114 774.0185 343.3978 C 774.3985 342.3978 774.7685 341.4578 775.1285 340.4778 C 775.8485 338.5178 776.5152 336.53447 777.1285 334.5278 C 784.795 309.73358 784.795 283.20204 777.1285 258.4078 C 776.5018 256.4078 775.8352 254.42447 775.1285 252.4578 C 774.7685 251.4578 774.3985 250.4578 774.0185 249.5378 C 773.3385 247.7978 772.6085 246.0778 771.8485 244.3778 C 765.4065 247.39847 758.3735 248.9492 751.2585 248.9178 Z" fill="#b2cbdb"/>
      </g>
      <g id="Graphic_103">
        <path d="M 569.2385 286.1878 C 574.9185 286.2778 584.6185 286.5078 591.8485 286.7178 C 592.65634 276.761 597.1918 267.47576 604.5485 260.7178 C 604.4485 260.5578 604.2585 260.2478 604.0085 259.8178 C 602.9385 258.0578 600.5685 254.1678 598.4085 250.5778 C 589.70554 249.04577 582.977 242.08708 581.73846 233.33752 C 580.4999 224.58797 585.0327 216.03516 592.9685 212.1478 C 594.8149 211.24377 596.7871 210.62346 598.8185 210.3078 L 607.1485 210.7478 C 613.2345 212.37337 618.231 216.71433 620.69096 222.5135 C 623.1509 228.31267 622.7995 234.92217 619.7385 240.4278 C 620.4685 242.6478 621.5385 245.9578 623.1185 250.9778 C 634.6597 248.4415 646.7322 251.1194 656.1185 258.2978 C 662.1985 252.8678 667.7585 247.9178 671.1185 244.9478 L 674.0085 242.3678 L 676.6385 239.9778 C 682.3685 234.7778 694.9285 223.3878 705.3885 213.9778 C 702.63235 202.76196 704.3882 190.9124 710.2785 180.9778 L 707.6485 179.7578 C 705.7552 178.8978 703.8385 178.0878 701.8985 177.3278 C 699.9685 176.5578 698.0085 175.8478 696.0185 175.1778 C 692.03344 173.82116 687.9815 172.66965 683.8785 171.7278 C 681.81184 171.2478 679.7285 170.82114 677.6285 170.4478 C 676.6285 170.2578 675.5185 170.0878 674.4585 169.9178 C 672.3385 169.5978 670.2052 169.3278 668.0585 169.1078 C 659.354 168.22781 650.583 168.22781 641.8785 169.1078 C 639.73184 169.3278 637.5985 169.5978 635.4785 169.9178 C 634.4185 170.0878 633.3585 170.2578 632.3085 170.4478 C 630.2085 170.82114 628.1252 171.2478 626.0585 171.7278 C 621.9559 172.66307 617.90395 173.8079 613.9185 175.1578 C 611.9185 175.8278 609.9685 176.5378 608.0385 177.3078 C 606.1085 178.0778 604.1785 178.8778 602.2885 179.7378 C 600.3985 180.5978 598.5385 181.4878 596.6985 182.4278 C 594.8585 183.3678 593.0385 184.3578 591.2585 185.4278 C 587.6785 187.4778 584.2585 189.7078 580.8685 192.0878 C 577.4785 194.4678 574.2985 196.9978 571.1985 199.6778 C 569.6585 201.0178 568.1385 202.3978 566.6585 203.8078 C 565.1785 205.2178 563.7285 206.6778 562.3085 208.1578 C 560.8885 209.6378 559.5185 211.1578 558.1785 212.6978 C 556.8385 214.2378 555.5385 215.8278 554.2685 217.4378 C 552.9985 219.0478 551.7685 220.6978 550.5885 222.3678 C 549.4085 224.0378 548.2485 225.7478 547.1385 227.4778 C 546.5785 228.3378 546.0385 229.2178 545.4985 230.0978 C 544.4285 231.8578 543.3985 233.6378 542.4185 235.4578 C 541.4385 237.2778 540.4885 239.1078 539.5885 240.9778 C 538.2552 243.77114 537.0085 246.62447 535.8485 249.5378 C 535.4685 250.5378 535.0985 251.4778 534.7385 252.4578 C 534.0185 254.4178 533.35184 256.40114 532.7385 258.4078 C 531.2161 263.32986 529.9906 268.33887 529.0685 273.4078 C 532.3108 272.21793 535.7453 271.63817 539.1985 271.6978 C 553.9185 271.4278 560.9185 275.4278 569.2385 286.1878 Z" fill="#b2cbdb"/>
      </g>
      <g id="Graphic_104">
        <path d="M 612.5485 414.6978 C 609.573 400.5976 615.03175 386.05 626.5485 377.3878 C 625.8985 368.8178 625.0785 354.1878 624.4585 343.0278 C 624.3885 341.6578 624.3385 340.7578 624.3185 340.4878 C 624.2985 340.2178 624.2385 339.2778 624.1485 337.8778 C 624.0085 335.8778 623.7985 332.7778 623.5685 329.2678 C 613.2468 327.0655 604.1996 320.9048 598.3685 312.1078 L 598.1885 312.1078 L 595.8685 312.5478 C 591.3185 313.4078 580.3885 315.4878 571.5485 317.0978 C 566.74014 327.54007 556.75845 334.65245 545.3185 335.7878 C 544.3185 335.8878 543.2485 335.9378 542.2185 335.9378 C 539.0009 335.93554 535.8019 335.45013 532.7285 334.4978 C 533.3485 336.4978 534.0085 338.4978 534.7285 340.4078 C 535.0885 341.4078 535.4585 342.4078 535.8385 343.3278 C 536.9785 346.24114 538.2252 349.09447 539.5785 351.8878 C 540.47184 353.78114 541.40184 355.6278 542.3685 357.4278 C 543.3685 359.2478 544.3685 361.0278 545.4485 362.7878 C 545.9885 363.6678 546.5285 364.5478 547.0885 365.4078 C 548.20184 367.14114 549.35184 368.84447 550.5385 370.5178 C 551.7252 372.19114 552.95184 373.8278 554.2185 375.4278 C 555.4852 377.04114 556.7885 378.62114 558.1285 380.1678 C 559.4685 381.7078 560.8485 383.2278 562.2585 384.7078 C 563.6685 386.1878 565.1285 387.6378 566.6085 389.0578 C 568.0885 390.4778 569.6085 391.8478 571.1485 393.1878 C 574.2485 395.8678 577.4785 398.4078 580.8185 400.7778 C 584.1585 403.1478 587.6285 405.3878 591.2085 407.4378 C 592.9885 408.4378 594.8085 409.4378 596.6485 410.4378 C 598.4885 411.4378 600.3485 412.2778 602.2385 413.1278 C 604.1285 413.9778 606.0485 414.7978 607.9885 415.5578 C 609.7185 416.2478 611.4685 416.8878 613.2385 417.4978 C 612.9785 416.5678 612.7385 415.6478 612.5485 414.6978 Z" fill="#b2cbdb"/>
      </g>
      <g id="Graphic_105">
        <path d="M 532.6685 258.3678 C 533.2952 256.3678 533.96184 254.38447 534.6685 252.4178 C 535.0285 251.4178 535.3985 250.4178 535.7785 249.4978 C 536.9185 246.58447 538.1652 243.73114 539.5185 240.9378 C 540.45184 239.06447 541.40184 237.2278 542.3685 235.4278 C 543.3685 233.6078 544.3685 231.8278 545.4485 230.0678 C 545.9885 229.1878 546.5285 228.3078 547.0885 227.4478 C 548.20184 225.72114 549.35184 224.0178 550.5385 222.3378 C 551.7252 220.6578 552.95184 219.02114 554.2185 217.4278 C 555.4852 215.82114 556.7885 214.24114 558.1285 212.6878 C 559.4685 211.1478 560.8485 209.6278 562.2585 208.1478 C 563.6685 206.6678 565.1285 205.2178 566.6085 203.7978 C 568.0885 202.3778 569.6085 201.0078 571.1485 199.6678 C 574.2485 196.9878 577.4785 194.4478 580.8185 192.0778 C 584.1585 189.7078 587.6285 187.4278 591.2085 185.4278 C 592.9885 184.4278 594.8085 183.4278 596.6485 182.4278 C 598.4885 181.4278 600.3485 180.5878 602.2385 179.7378 C 604.1285 178.8878 606.0485 178.0678 607.9885 177.3078 C 609.9285 176.5478 611.9185 175.8278 613.9185 175.1578 C 617.9036 173.80116 621.95556 172.64965 626.0585 171.7078 C 628.1252 171.2278 630.2085 170.80114 632.3085 170.4278 C 633.3085 170.2378 634.4185 170.0678 635.4785 169.8978 C 637.5985 169.5778 639.73184 169.3078 641.8785 169.0878 C 650.583 168.20781 659.354 168.20781 668.0585 169.0878 C 670.2052 169.3078 672.3385 169.5778 674.4585 169.8978 C 675.5185 170.0678 676.5785 170.2378 677.6285 170.4278 C 679.7285 170.80114 681.81184 171.2278 683.8785 171.7078 C 687.9815 172.64965 692.03344 173.80116 696.0185 175.1578 C 698.0185 175.8278 699.9685 176.5378 701.8985 177.3078 C 703.8285 178.0778 705.7585 178.8778 707.6485 179.7378 L 710.2785 180.9578 C 711.3172 179.21466 712.4732 177.54414 713.7385 175.9578 C 675.2874 157.21734 630.2028 157.94486 592.37635 177.91622 C 554.5499 197.88757 528.52054 234.70638 522.3085 277.0278 C 524.3511 275.4927 526.60424 274.26004 528.9985 273.3678 C 529.9206 268.29887 531.1461 263.28986 532.6685 258.3678 Z" fill="#347da5"/>
      </g>
      <g id="Graphic_106">
        <path d="M 607.9885 415.5478 C 606.0485 414.7878 604.13184 413.9778 602.2385 413.1178 C 600.3452 412.2578 598.48184 411.36114 596.6485 410.4278 C 594.8085 409.4778 592.9885 408.4978 591.2085 407.4278 C 587.6285 405.3778 584.2085 403.1478 580.8185 400.7678 C 577.4285 398.3878 574.2485 395.8578 571.1485 393.1778 C 569.6085 391.8378 568.0885 390.4578 566.6085 389.0478 C 565.1285 387.6378 563.6785 386.1778 562.2585 384.6978 C 560.8385 383.2178 559.4685 381.6978 558.1285 380.1578 C 556.7885 378.6178 555.4885 377.0278 554.2185 375.4178 C 552.9485 373.8078 551.7185 372.1578 550.5385 370.4878 C 549.3585 368.8178 548.1985 367.1078 547.0885 365.3778 C 546.5285 364.5178 545.9885 363.6378 545.4485 362.7578 C 544.3785 360.9978 543.3485 359.2178 542.3685 357.3978 C 541.3885 355.5778 540.4385 353.7478 539.5385 351.8778 C 538.2052 349.08447 536.9585 346.23114 535.7985 343.3178 C 535.4185 342.3178 535.0485 341.3778 534.6885 340.3978 C 533.9685 338.4478 533.3085 336.4778 532.6885 334.4878 C 530.16116 333.7082 527.73956 332.62 525.4785 331.2478 C 537.60184 375.9701 571.89646 411.30006 616.2385 424.7478 C 614.9859 422.4261 613.9804 419.9794 613.2385 417.4478 C 611.4685 416.8778 609.7185 416.2378 607.9885 415.5478 Z" fill="#347da5"/>
      </g>
      <g id="Graphic_107">
        <path d="M 774.0385 249.4978 C 774.4185 250.4978 774.7885 251.4378 775.1485 252.4178 C 775.8685 254.3778 776.5352 256.36114 777.1485 258.3678 C 784.815 283.16204 784.815 309.69358 777.1485 334.4878 C 776.5218 336.4878 775.8552 338.47114 775.1485 340.4378 C 774.7885 341.4378 774.4185 342.4378 774.0385 343.3578 C 772.8985 346.27114 771.6518 349.12447 770.2985 351.9178 C 769.3785 353.79114 768.4352 355.6278 767.4685 357.4278 C 766.4685 359.2478 765.4685 361.0278 764.3885 362.7878 C 763.8485 363.6678 763.3085 364.5478 762.7485 365.4078 C 761.6418 367.14114 760.4918 368.84447 759.2985 370.5178 C 758.1052 372.19114 756.8785 373.8278 755.6185 375.4278 C 754.3518 377.04114 753.0485 378.62114 751.7085 380.1678 C 750.3685 381.7078 748.9885 383.2278 747.5785 384.7078 C 746.1685 386.1878 744.7085 387.6378 743.2285 389.0578 C 741.7485 390.4778 740.2285 391.8478 738.6885 393.1878 C 735.5885 395.8678 732.3585 398.4078 729.0185 400.7778 C 725.6785 403.1478 722.2085 405.4278 718.6285 407.4278 C 716.8485 408.4278 715.0285 409.4278 713.1885 410.4278 C 711.3485 411.4278 709.4885 412.2678 707.5985 413.1178 C 705.7085 413.9678 703.7885 414.7878 701.8485 415.5478 C 699.9085 416.3078 697.9585 417.0278 695.9685 417.6978 C 691.98344 419.05446 687.9315 420.20597 683.8285 421.1478 L 683.6085 421.1478 C 682.6071 423.57377 681.3571 425.88946 679.8785 428.0578 C 720.1667 420.35834 754.721 394.65564 773.6817 358.2837 C 792.6423 321.9118 793.9268 278.86554 777.1685 241.4278 C 775.4655 242.52135 773.6953 243.50663 771.8685 244.3778 C 772.6285 246.0378 773.3585 247.7578 774.0385 249.4978 Z" fill="#347da5"/>
      </g>
      <g id="Graphic_108"/>
      <g id="Graphic_109">
        <path d="M 673.6585 423.0578 L 674.4085 422.9578 Z" fill="white"/>
      </g>
      <g id="Graphic_110">
        <path d="M 613.2385 417.4878 L 613.8685 417.6978 Z" fill="white"/>
      </g>
    </g>
  </g>
</svg>
