<?xml version="1.0" encoding="UTF-8" standalone="no"?>
<svg version="1.1" id="Layer_1" xmlns="http://www.w3.org/2000/svg" xmlns:xlink="http://www.w3.org/1999/xlink"
     viewBox="-169.0158 160.50606 272.1458 274.02913" width="272.1458" height="274.02913">
    <g id="Canvas_1" stroke="none" fill-opacity="1" stroke-dasharray="none" stroke-opacity="1" fill="none">
        <title>Canvas 1</title>
        <g id="Canvas_1_Layer_1">
            <title>Layer 1</title>
            <g id="Graphic_229">
                <path d="M 94.71271 178.59126 C 87.3159 169.73504 76.43961 164.52493 64.90271 164.31126 C 55.906745 164.08992 47.09894 166.90842 39.90271 172.31126 C 26.689342 182.00088 21.60804 199.34288 27.502712 214.63126 C 13.972712 226.63126 -6.117288 244.96126 -7.707288 246.39126 C -8.847288 247.39126 -19.977288 257.29126 -31.037288 267.21126 C -40.45346 256.28533 -56.01522 253.00917 -69.03729 259.21126 C -69.77729 256.95126 -70.34729 255.21126 -70.42729 254.95126 C -70.70729 254.09126 -75.61729 238.36126 -76.13729 237.49126 L -76.52729 237.49126 C -72.626626 233.7452 -71.60104 227.90443 -73.99217 223.0536 C -76.3833 218.20276 -81.64049 215.45896 -86.98729 216.27126 C -93.6176 217.2919 -98.23398 223.40045 -97.4059 230.05755 C -96.57782 236.71466 -90.60559 241.5061 -83.92729 240.87126 C -80.92729 245.87126 -75.92729 254.11126 -75.56729 254.73126 C -75.36729 255.07126 -73.80729 257.73126 -71.94729 260.80126 C -83.01687 267.55068 -88.93562 280.29967 -86.94729 293.11126 C -91.57729 292.86126 -122.45729 292.06126 -122.55729 292.30126 C -126.70766 282.6318 -136.62037 276.74234 -147.09729 277.72126 C -159.3017 278.89093 -168.70918 288.9926 -169.00847 301.24927 C -169.30776 313.50595 -160.40452 324.05472 -148.27174 325.81866 C -136.13896 327.5826 -124.60052 320.00575 -121.39729 308.17126 C -110.16729 306.17126 -91.68729 302.64126 -90.29729 302.38126 L -84.45729 301.32126 C -79.39319 312.6141 -68.27115 319.9743 -55.89729 320.22126 C -55.33729 329.08126 -54.77729 337.17126 -54.72729 338.10126 C -54.60729 340.02126 -52.94729 371.37126 -52.09729 379.57126 C -64.57062 386.46667 -70.275745 401.3352 -65.616436 414.8045 C -60.95713 428.27377 -47.284143 436.439 -33.216234 434.15324 C -19.148326 431.86747 -8.763846 419.79336 -8.608639 405.5418 C -8.453433 391.29026 -18.572496 378.99286 -32.587288 376.40126 C -36.51729 363.07126 -42.58729 343.20126 -43.09729 341.64126 C -43.42729 340.54126 -46.43729 330.28126 -49.58729 319.74126 C -40.212173 318.05787 -32.070464 312.2942 -27.367288 304.01126 C -24.367288 305.51126 -21.067288 307.10126 -20.747288 307.25126 C -20.157288 307.55126 -9.337288 313.01126 -8.607288 313.18126 L -8.397288 312.99126 C -8.423068 317.44715 -5.2285284 321.27075 -.8390803 322.0378 C 3.550368 322.80485 7.852322 320.29126 9.339245 316.0907 C 10.826168 311.89014 9.063647 307.22984 5.1691597 305.06452 C 1.2746728 302.8992 -3.613983 303.8615 -6.397288 307.34126 C -10.567288 306.34126 -17.477288 304.78126 -18.007288 304.66126 C -18.537288 304.54126 -22.787288 303.52126 -26.627288 302.66126 C -24.363114 298.1811 -23.184703 293.23107 -23.187288 288.21126 C -23.186272 283.19483 -24.36464 278.24843 -26.627288 273.77126 C -16.007288 267.87126 -6.077288 262.31126 -4.977288 261.70126 C -2.557288 260.37126 40.44271 237.13126 44.69271 234.05126 C 58.568275 241.66752 75.61049 240.49543 88.31271 231.05126 C 96.38486 225.1334 101.65095 216.14134 102.86305 206.20598 C 104.07514 196.27061 101.12535 186.27623 94.71271 178.59126 Z"
                      fill="white"/>
            </g>
            <g id="Graphic_277">
                <path d="M 64.24271 247.02126 C 57.67625 247.01976 51.17724 245.69683 45.13271 243.13126 C 39.77271 246.27126 28.132712 252.78126 1.8527121 267.05126 L -1.1472879 268.68126 C -1.4772879 268.85126 -2.567288 269.47126 -4.217288 270.39126 L -16.707288 277.39126 C -14.933067 283.7561 -14.751057 290.45954 -16.177288 296.91126 L -15.377288 297.10126 C -13.937288 297.42126 -11.227288 298.04126 -8.567288 298.66126 C -2.4268365 294.73168 5.5285504 295.1217 11.25517 299.6331 C 16.98179 304.14447 19.223323 311.7875 16.840406 318.67724 C 14.457488 325.56697 7.972888 330.19193 .68271214 330.20126 C -1.124705 330.20475 -2.920938 329.91775 -4.637288 329.35126 C -9.663228 327.7258 -13.651954 323.86266 -15.437288 318.89126 C -17.257288 318.00126 -19.867288 316.71126 -23.657288 314.80126 L -24.347288 314.45126 L -24.817288 314.22126 C -28.857353 318.96748 -33.953655 322.70065 -39.69729 325.12126 C -38.31729 329.79126 -37.09729 333.90126 -36.32729 336.52126 L -35.487288 339.37126 L -34.627288 342.16126 C -32.937288 347.70126 -29.267288 359.71126 -26.247288 369.82126 C -16.436463 373.0664 -8.411506 380.2361 -4.085939 389.6208 C .23962753 399.0055 .47813507 409.7641 -3.427288 419.33126 L -3.207288 419.33126 C .8956633 418.38943 4.947645 417.2379 8.932712 415.88126 C 10.932712 415.21126 12.882712 414.50126 14.812712 413.73126 C 16.742712 412.96126 18.672712 412.16126 20.562712 411.30126 C 22.452712 410.44126 24.312712 409.55126 26.152712 408.61126 C 27.992712 407.67126 29.812712 406.68126 31.592712 405.61126 C 35.172712 403.56126 38.59271 401.33126 41.98271 398.95126 C 45.37271 396.57126 48.55271 394.04126 51.65271 391.36126 C 53.19271 390.02126 54.71271 388.64126 56.19271 387.23126 C 57.67271 385.82126 59.12271 384.36126 60.54271 382.88126 C 61.96271 381.40126 63.33271 379.88126 64.67271 378.34126 C 66.01271 376.80126 67.31271 375.21126 68.58271 373.60126 C 69.85271 371.99126 71.08271 370.34126 72.26271 368.67126 C 73.44271 367.00126 74.60271 365.29126 75.71271 363.56126 C 76.27271 362.70126 76.81271 361.82126 77.35271 360.94126 C 78.42271 359.18126 79.45271 357.40126 80.43271 355.58126 C 81.41271 353.76126 82.36271 351.93126 83.26271 350.06126 C 84.59605 347.26793 85.84271 344.4146 87.00271 341.50126 C 87.38271 340.50126 87.75271 339.56126 88.11271 338.58126 C 88.83271 336.62126 89.49938 334.63793 90.11271 332.63126 C 97.7792 307.83703 97.7792 281.3055 90.11271 256.51126 C 89.48605 254.51126 88.81938 252.52793 88.11271 250.56126 C 87.75271 249.56126 87.38271 248.56126 87.00271 247.64126 C 86.32271 245.90126 85.59271 244.18126 84.83271 242.48126 C 78.39069 245.50192 71.3577 247.05267 64.24271 247.02126 Z"
                      fill="white"/>
            </g>
            <g id="Graphic_278">
                <path d="M -117.77729 284.29126 C -112.09729 284.38126 -102.39729 284.61126 -95.16729 284.82126 C -94.35946 274.86445 -89.82398 265.5792 -82.46729 258.82126 C -82.56729 258.66126 -82.75729 258.35126 -83.00729 257.92126 C -84.07729 256.16126 -86.44729 252.27126 -88.60729 248.68126 C -97.31026 247.14923 -104.03879 240.19054 -105.27734 231.44098 C -106.51589 222.69142 -101.98311 214.13862 -94.04729 210.25126 C -92.20092 209.34723 -90.22872 208.72692 -88.19729 208.41126 L -79.86729 208.85126 C -73.78129 210.47682 -68.784794 214.81778 -66.324835 220.61696 C -63.864876 226.41613 -64.216284 233.02562 -67.27729 238.53126 C -66.54729 240.75126 -65.47729 244.06126 -63.89729 249.08126 C -52.356063 246.54496 -40.28361 249.22285 -30.897288 256.40126 C -24.817288 250.97126 -19.257288 246.02126 -15.897288 243.05126 L -13.007288 240.47126 L -10.377288 238.08126 C -4.647288 232.88126 7.912712 221.49126 18.372712 212.08126 C 15.616556 200.86542 17.372444 189.01587 23.262712 179.08126 L 20.632712 177.86126 C 18.739379 177.00126 16.822712 176.19126 14.882712 175.43126 C 12.952712 174.66126 10.992712 173.95126 9.002712 173.28126 C 5.017645 171.92461 .9656633 170.7731 -3.137288 169.83126 C -5.2039545 169.35126 -7.287288 168.9246 -9.387288 168.55126 C -10.387288 168.36126 -11.497288 168.19126 -12.557288 168.02126 C -14.677288 167.70126 -16.810621 167.43126 -18.957288 167.21126 C -27.66177 166.33127 -36.432806 166.33127 -45.13729 167.21126 C -47.283955 167.43126 -49.41729 167.70126 -51.53729 168.02126 C -52.59729 168.19126 -53.65729 168.36126 -54.70729 168.55126 C -56.80729 168.91793 -58.89062 169.3446 -60.95729 169.83126 C -65.059874 170.76653 -69.11185 171.91136 -73.09729 173.26126 C -75.09729 173.93126 -77.04729 174.64126 -78.97729 175.41126 C -80.90729 176.18126 -82.83729 176.98126 -84.72729 177.84126 C -86.61729 178.70126 -88.47729 179.59126 -90.31729 180.53126 C -92.15729 181.47126 -93.97729 182.46126 -95.75729 183.53126 C -99.33729 185.58126 -102.75729 187.81126 -106.14729 190.19126 C -109.53729 192.57126 -112.71729 195.10126 -115.81729 197.78126 C -117.35729 199.12126 -118.87729 200.50126 -120.35729 201.91126 C -121.83729 203.32126 -123.28729 204.78126 -124.70729 206.26126 C -126.12729 207.74126 -127.49729 209.26126 -128.83729 210.80126 C -130.17729 212.34126 -131.52729 213.89126 -132.79729 215.53126 C -134.06729 217.17126 -135.29729 218.79126 -136.47729 220.46126 C -137.65729 222.13126 -138.81729 223.84126 -139.92729 225.57126 C -140.48729 226.43126 -141.02729 227.31126 -141.56729 228.19126 C -142.63729 229.95126 -143.66729 231.73126 -144.64729 233.55126 C -145.62729 235.37126 -146.57729 237.20126 -147.47729 239.07126 C -148.81062 241.85793 -150.05729 244.71126 -151.21729 247.63126 C -151.59729 248.63126 -151.96729 249.57126 -152.32729 250.55126 C -153.04729 252.51126 -153.71395 254.4946 -154.32729 256.50126 C -155.84969 261.42332 -157.07523 266.43233 -157.99729 271.50126 C -154.75498 270.31138 -151.32052 269.73163 -147.86729 269.79126 C -133.09729 269.53126 -126.09729 273.53126 -117.77729 284.29126 Z"
                      fill="white"/>
            </g>
            <g id="Graphic_279">
                <path d="M -74.46729 412.80126 C -77.44283 398.70107 -71.98405 384.15344 -60.46729 375.49126 C -61.11729 366.92126 -61.93729 352.29126 -62.55729 341.13126 C -62.62729 339.76126 -62.67729 338.86126 -62.69729 338.59126 C -62.71729 338.32126 -62.77729 337.38126 -62.86729 335.98126 C -63.00729 333.98126 -63.21729 330.88126 -63.44729 327.37126 C -73.76903 325.16894 -82.8162 319.00825 -88.64729 310.21126 L -88.82729 310.21126 L -91.14729 310.65126 C -95.69729 311.51126 -106.62729 313.59126 -115.46729 315.20126 C -120.27566 325.64353 -130.25734 332.7559 -141.69729 333.89126 C -142.69729 333.99126 -143.76729 334.04126 -144.79729 334.04126 C -148.01487 334.039 -151.21387 333.5536 -154.28729 332.60126 C -153.66729 334.60126 -153.00729 336.60126 -152.28729 338.51126 C -151.92729 339.51126 -151.55729 340.51126 -151.17729 341.43126 C -150.03729 344.3446 -148.79062 347.19793 -147.43729 349.99126 C -146.54395 351.8846 -145.61395 353.73126 -144.64729 355.53126 C -143.64729 357.35126 -142.64729 359.13126 -141.56729 360.89126 C -141.02729 361.77126 -140.48729 362.65126 -139.92729 363.51126 C -138.81395 365.23793 -137.66395 366.94126 -136.47729 368.62126 C -135.29062 370.30126 -134.06395 371.93793 -132.79729 373.53126 C -131.53062 375.1446 -130.22729 376.7246 -128.88729 378.27126 C -127.54729 379.81126 -126.16729 381.33126 -124.75729 382.81126 C -123.34729 384.29126 -121.88729 385.74126 -120.40729 387.16126 C -118.92729 388.58126 -117.40729 389.95126 -115.86729 391.29126 C -112.76729 393.97126 -109.53729 396.51126 -106.19729 398.88126 C -102.85729 401.25126 -99.38729 403.49126 -95.80729 405.54126 C -94.02729 406.54126 -92.20729 407.54126 -90.36729 408.54126 C -88.52729 409.54126 -86.66729 410.38126 -84.77729 411.23126 C -82.88729 412.08126 -80.96729 412.90126 -79.02729 413.66126 C -77.29729 414.35126 -75.54729 414.99126 -73.77729 415.60126 C -74.03729 414.67126 -74.27729 413.75126 -74.46729 412.80126 Z"
                      fill="white"/>
            </g>
            <g id="Graphic_280">
                <path d="M -154.34729 256.47126 C -153.71395 254.47126 -153.04729 252.48793 -152.34729 250.52126 C -151.98729 249.52126 -151.61729 248.52126 -151.23729 247.60126 C -150.09729 244.6946 -148.85062 241.84126 -147.49729 239.04126 C -146.56395 237.1746 -145.61395 235.33793 -144.64729 233.53126 C -143.64729 231.71126 -142.64729 229.93126 -141.56729 228.17126 C -141.02729 227.29126 -140.48729 226.41126 -139.92729 225.55126 C -138.81395 223.81793 -137.66395 222.1146 -136.47729 220.44126 C -135.29062 218.76793 -134.06395 217.13126 -132.79729 215.53126 C -131.53062 213.9246 -130.22729 212.3446 -128.88729 210.79126 C -127.54729 209.25126 -126.16729 207.73126 -124.75729 206.25126 C -123.34729 204.77126 -121.88729 203.32126 -120.40729 201.90126 C -118.92729 200.48126 -117.40729 199.11126 -115.86729 197.77126 C -112.76729 195.09126 -109.53729 192.55126 -106.19729 190.18126 C -102.85729 187.81126 -99.38729 185.53126 -95.80729 183.53126 C -94.02729 182.53126 -92.20729 181.53126 -90.36729 180.53126 C -88.52729 179.53126 -86.66729 178.69126 -84.77729 177.84126 C -82.88729 176.99126 -80.96729 176.17126 -79.02729 175.41126 C -77.08729 174.65126 -75.09729 173.93126 -73.09729 173.26126 C -69.11222 171.90461 -65.06024 170.7531 -60.95729 169.81126 C -58.89062 169.33126 -56.80729 168.9046 -54.70729 168.53126 C -53.70729 168.34126 -52.59729 168.17126 -51.53729 168.00126 C -49.41729 167.68126 -47.283955 167.41126 -45.13729 167.19126 C -36.432806 166.31127 -27.66177 166.31127 -18.957288 167.19126 C -16.810621 167.41126 -14.677288 167.68126 -12.557288 168.00126 C -11.497288 168.17126 -10.437288 168.34126 -9.387288 168.53126 C -7.287288 168.89793 -5.2039545 169.3246 -3.137288 169.81126 C .9656633 170.7531 5.017645 171.90461 9.002712 173.26126 C 11.002712 173.93126 12.952712 174.64126 14.882712 175.41126 C 16.812712 176.18126 18.742712 176.98126 20.632712 177.84126 L 23.262712 179.06126 C 24.301403 177.31811 25.457402 175.6476 26.722712 174.06126 C -11.728397 155.3208 -56.81303 156.04832 -94.63945 176.01967 C -132.46587 195.99103 -158.49526 232.80983 -164.70729 275.13126 C -162.66472 273.59617 -160.41156 272.3635 -158.01729 271.47126 C -157.09523 266.40233 -155.86969 261.39332 -154.34729 256.47126 Z"
                      fill="white"/>
            </g>
            <g id="Graphic_281">
                <path d="M -79.02729 413.65126 C -80.96729 412.89126 -82.88395 412.08126 -84.77729 411.22126 C -86.67062 410.36126 -88.53395 409.4646 -90.36729 408.53126 C -92.20729 407.58126 -94.02729 406.60126 -95.80729 405.53126 C -99.38729 403.48126 -102.80729 401.25126 -106.19729 398.87126 C -109.58729 396.49126 -112.76729 393.96126 -115.86729 391.28126 C -117.40729 389.94126 -118.92729 388.56126 -120.40729 387.15126 C -121.88729 385.74126 -123.33729 384.28126 -124.75729 382.80126 C -126.17729 381.32126 -127.54729 379.80126 -128.88729 378.26126 C -130.22729 376.72126 -131.52729 375.13126 -132.79729 373.52126 C -134.06729 371.91126 -135.29729 370.26126 -136.47729 368.59126 C -137.65729 366.92126 -138.81729 365.21126 -139.92729 363.48126 C -140.48729 362.62126 -141.02729 361.74126 -141.56729 360.86126 C -142.63729 359.10126 -143.66729 357.32126 -144.64729 355.50126 C -145.62729 353.68126 -146.57729 351.85126 -147.47729 349.98126 C -148.81062 347.18793 -150.05729 344.3346 -151.21729 341.42126 C -151.59729 340.42126 -151.96729 339.48126 -152.32729 338.50126 C -153.04729 336.55126 -153.70729 334.58126 -154.32729 332.59126 C -156.85464 331.81166 -159.27623 330.72345 -161.53729 329.35126 C -149.41395 374.07356 -115.11934 409.4035 -70.77729 422.85126 C -72.029875 420.52956 -73.03538 418.08283 -73.77729 415.55126 C -75.54729 414.98126 -77.29729 414.34126 -79.02729 413.65126 Z"
                      fill="white"/>
            </g>
            <g id="Graphic_282">
                <path d="M 87.02271 247.60126 C 87.40271 248.60126 87.77271 249.54126 88.13271 250.52126 C 88.85271 252.48126 89.51938 254.4646 90.13271 256.47126 C 97.7992 281.2655 97.7992 307.79703 90.13271 332.59126 C 89.50605 334.59126 88.83938 336.5746 88.13271 338.54126 C 87.77271 339.54126 87.40271 340.54126 87.02271 341.46126 C 85.88271 344.3746 84.63605 347.22793 83.28271 350.02126 C 82.36271 351.8946 81.41938 353.73126 80.45271 355.53126 C 79.45271 357.35126 78.45271 359.13126 77.37271 360.89126 C 76.83271 361.77126 76.29271 362.65126 75.73271 363.51126 C 74.626045 365.23793 73.476045 366.94126 72.28271 368.62126 C 71.08938 370.30126 69.86271 371.93793 68.60271 373.53126 C 67.336045 375.1446 66.03271 376.7246 64.69271 378.27126 C 63.35271 379.81126 61.97271 381.33126 60.56271 382.81126 C 59.15271 384.29126 57.69271 385.74126 56.21271 387.16126 C 54.73271 388.58126 53.21271 389.95126 51.67271 391.29126 C 48.57271 393.97126 45.34271 396.51126 42.00271 398.88126 C 38.66271 401.25126 35.192712 403.53126 31.612712 405.53126 C 29.832712 406.53126 28.012712 407.53126 26.172712 408.53126 C 24.332712 409.53126 22.472712 410.37126 20.582712 411.22126 C 18.692712 412.07126 16.772712 412.89126 14.832712 413.65126 C 12.892712 414.41126 10.942712 415.13126 8.952712 415.80126 C 4.967645 417.1579 .9156633 418.30943 -3.187288 419.25126 L -3.407288 419.25126 C -4.408662 421.6772 -5.658668 423.9929 -7.137288 426.16126 C 33.15094 418.4618 67.70524 392.7591 86.66589 356.38717 C 105.62653 320.01524 106.91097 276.969 90.15271 239.53126 C 88.451 240.6419 86.6808 241.6439 84.85271 242.53126 C 85.61271 244.14126 86.34271 245.86126 87.02271 247.60126 Z"
                      fill="white"/>
            </g>
            <g id="Graphic_284">
                <path d="M -13.357288 421.16126 L -12.607288 421.06126 Z"
                      fill="white"/>
            </g>
            <g id="Graphic_285">
                <path d="M -73.77729 415.59126 L -73.14729 415.80126 Z"
                      fill="white"/>
            </g>
            <g id="Graphic_286">
                <path d="M 84.90271 242.44126 C 84.39271 241.30126 83.90271 240.16126 83.33271 239.04126 C 83.87271 240.16126 84.39271 241.30126 84.90271 242.44126 Z"
                      fill="white"/>
            </g>
        </g>
    </g>
</svg>
