<svg id="Layer_1" data-name="Layer 1" xmlns="http://www.w3.org/2000/svg" viewBox="0 0 222.53 98">
    <defs>
        <style>.cls-1,.cls-2{fill:#347da5;}.cls-2{opacity:0.4;}</style>
    </defs>
    <title>ongdb-225x100</title>
    <path class="cls-1"
          d="M95.81,7.46A14.26,14.26,0,0,0,85.14,2.35h0a14.34,14.34,0,0,0-9,2.85,13,13,0,0,0-4.42,15.15c-4.84,4.31-12,10.85-12.6,11.36-.41.37-4.39,3.9-8.34,7.44A11.47,11.47,0,0,0,37.24,36.3c-.26-.81-.47-1.43-.5-1.52-.1-.31-1.85-5.93-2-6.25h-.14a4.43,4.43,0,0,0-3.74-7.59h0a4,4,0,0,0-1.27.4,4.44,4.44,0,0,0,2.37,8.4c1.06,1.79,2.85,4.73,3,4.95l1.29,2.17a11.44,11.44,0,0,0-5.36,11.56c-1.66-.09-12.7-.38-12.74-.29a8.66,8.66,0,0,0-8.79-5.21h0A8.66,8.66,0,1,0,18.5,53.8c4-.71,10.63-2,11.12-2.07l2.09-.37a11.47,11.47,0,0,0,10.21,6.76c.21,3.17.41,6.06.43,6.39,0,.69.63,11.9.93,14.83a10.49,10.49,0,1,0,7-1.13c-1.41-4.77-3.6-11.87-3.76-12.43-.12-.4-1.2-4.07-2.33-7.84a11.43,11.43,0,0,0,8-5.62l2.37,1.16c.21.1,4.08,2.06,4.34,2.12l.08-.07a3.25,3.25,0,1,0,.71-2c-1.49-.36-4-.92-4.15-1l-3.08-.73a11.44,11.44,0,0,0,1.23-5.16h0a11.49,11.49,0,0,0-1.23-5.17c3.8-2.11,7.35-4.1,7.74-4.32.87-.47,16.25-8.78,17.77-9.89a14.46,14.46,0,0,0,15.6-1.06A13,13,0,0,0,95.81,7.46Z"
          transform="translate(-1.47 -1)"/>
    <path class="cls-2"
          d="M84.91,31.93a17.39,17.39,0,0,1-6.84-1.39C76.15,31.67,72,34,62.59,39.1l-1.07.58-1.09.61L56,42.78a14.36,14.36,0,0,1,.53,3.88,14,14,0,0,1-.34,3.11l.29.06,2.43.56A6.13,6.13,0,0,1,68,57.45a6.09,6.09,0,0,1-5.82,4.22,6.18,6.18,0,0,1-1.9-.3,6.09,6.09,0,0,1-3.86-3.74l-3-1.46L53.23,56,53.06,56a14.35,14.35,0,0,1-5.32,3.9c.49,1.67.93,3.14,1.2,4.08.17.54.27.9.31,1l.3,1c.61,2,1.92,6.28,3,9.9a13.34,13.34,0,0,1,8.16,17.7h.08c1.48-.35,2.92-.76,4.34-1.24.71-.24,1.41-.49,2.11-.77s1.37-.56,2.05-.87,1.34-.62,2-1,1.31-.69,1.95-1.06A43.32,43.32,0,0,0,77,86.26q1.8-1.28,3.46-2.72c.55-.48,1.1-1,1.63-1.47s1-1,1.55-1.56,1-1.07,1.48-1.62.94-1.12,1.4-1.7.89-1.16,1.31-1.76.84-1.21,1.24-1.83c.2-.31.39-.62.58-.93.39-.63.75-1.27,1.11-1.92s.68-1.31,1-2c.48-1,.93-2,1.34-3.06l.39-1q.39-1.05.72-2.13a46,46,0,0,0,0-27.23c-.22-.71-.46-1.42-.72-2.12l-.39-1c-.25-.62-.51-1.24-.78-1.84A17.29,17.29,0,0,1,84.91,31.93Z"
          transform="translate(-1.47 -1)"/>
    <path class="cls-2"
          d="M19.81,45.26c2,0,5.5.12,8.08.19a14.21,14.21,0,0,1,4.54-9.31l-.19-.32-2-3.31a7.3,7.3,0,0,1-1.95-13.75,7.35,7.35,0,0,1,2.09-.65l3,.15a7.32,7.32,0,0,1,4.51,10.63c.26.79.64,2,1.21,3.77a14.38,14.38,0,0,1,11.79,2.62l5.35-4.78,1-.92.94-.85c2-1.86,6.54-5.94,10.28-9.29a15.91,15.91,0,0,1,.14-8,16.09,16.09,0,0,1,1.61-3.76l-.94-.44c-.68-.31-1.36-.6-2.05-.87s-1.4-.53-2.11-.77a44.93,44.93,0,0,0-4.34-1.23c-.74-.17-1.48-.32-2.24-.46l-1.13-.19c-.76-.11-1.52-.21-2.29-.29-1.54-.15-3.1-.23-4.68-.23s-3.14.08-4.68.23c-.77.08-1.53.18-2.29.29l-1.13.19c-.76.14-1.5.29-2.24.46a44.13,44.13,0,0,0-4.34,1.23c-.71.24-1.41.5-2.11.77s-1.37.56-2,.87-1.34.63-2,1-1.31.69-1.95,1.06Q25.74,10.32,24,11.59t-3.46,2.72c-.55.48-1.1,1-1.63,1.48s-1,1-1.55,1.55-1,1.07-1.48,1.63-.94,1.12-1.4,1.69-.89,1.17-1.32,1.76-.83,1.21-1.23,1.83c-.2.31-.39.62-.58.94-.39.63-.75,1.27-1.11,1.92s-.69,1.3-1,2c-.48,1-.93,2-1.34,3.06-.13.35-.27.7-.39,1-.26.7-.5,1.41-.72,2.12a43.84,43.84,0,0,0-1.32,5.37A9.87,9.87,0,0,1,9,40.07C14.33,40,16.83,41.42,19.81,45.26Z"
          transform="translate(-1.47 -1)"/>
    <path class="cls-2"
          d="M35.29,91.23a13.28,13.28,0,0,1,5-13.35c-.23-3.06-.53-8.3-.75-12.29,0-.48,0-.81,0-.9s0-.44-.06-.94c0-.73-.12-1.82-.21-3.08a14.44,14.44,0,0,1-9-6.13h-.07l-.82.15c-1.63.31-5.54,1-8.7,1.63A11.6,11.6,0,0,1,11.24,63c-.37,0-.75,0-1.12,0a11.37,11.37,0,0,1-3.39-.52c.22.72.46,1.42.72,2.12.12.35.26.7.39,1,.41,1,.86,2.06,1.34,3.06.32.67.66,1.33,1,2s.72,1.29,1.11,1.92c.19.31.38.62.58.93q.6.93,1.23,1.83c.43.6.87,1.19,1.32,1.76s.92,1.14,1.4,1.7,1,1.09,1.48,1.62,1,1,1.55,1.56,1.08,1,1.63,1.47Q22.16,85,24,86.26a43.32,43.32,0,0,0,3.71,2.38c.64.37,1.29.72,1.95,1.06s1.32.66,2,1,1.36.6,2,.87,1.25.48,1.88.69C35.45,91.9,35.36,91.57,35.29,91.23Z"
          transform="translate(-1.47 -1)"/>
    <path class="cls-1"
          d="M6.73,35.31c.22-.71.46-1.42.72-2.12.12-.35.26-.7.39-1,.41-1,.86-2.06,1.34-3.06.32-.67.66-1.33,1-2s.72-1.29,1.11-1.92c.19-.32.38-.63.58-.94q.6-.93,1.23-1.83c.43-.59.87-1.18,1.32-1.76s.92-1.14,1.4-1.69,1-1.1,1.48-1.63,1-1.05,1.55-1.55,1.08-1,1.63-1.48q1.67-1.44,3.46-2.72t3.71-2.38c.64-.37,1.29-.72,1.95-1.06s1.32-.65,2-1,1.36-.6,2-.87,1.4-.53,2.11-.77a44.13,44.13,0,0,1,4.34-1.23c.74-.17,1.48-.32,2.24-.46l1.13-.19c.76-.11,1.52-.21,2.29-.29,1.54-.15,3.1-.23,4.68-.23s3.14.08,4.68.23c.77.08,1.53.18,2.29.29l1.13.19c.76.14,1.5.29,2.24.46a44.93,44.93,0,0,1,4.34,1.23c.71.24,1.41.5,2.11.77s1.37.56,2.05.87l.94.44a14.74,14.74,0,0,1,1.24-1.8A48,48,0,0,0,3,42a9.39,9.39,0,0,1,2.39-1.31A43.84,43.84,0,0,1,6.73,35.31Z"
          transform="translate(-1.47 -1)"/>
    <path class="cls-1"
          d="M33.66,91.53c-.69-.27-1.37-.56-2-.87s-1.34-.62-2-1S28.3,89,27.66,88.64A43.32,43.32,0,0,1,24,86.26q-1.8-1.28-3.46-2.72c-.55-.48-1.1-1-1.63-1.47s-1-1-1.55-1.56-1-1.07-1.48-1.62-.94-1.12-1.4-1.7-.89-1.16-1.32-1.76-.83-1.21-1.23-1.83c-.2-.31-.39-.62-.58-.93-.39-.63-.75-1.27-1.11-1.92s-.69-1.31-1-2c-.48-1-.93-2-1.34-3.06-.13-.34-.27-.69-.39-1-.26-.7-.5-1.4-.72-2.12a11.27,11.27,0,0,1-2.58-1.16A48.1,48.1,0,0,0,36.61,94.84a13.71,13.71,0,0,1-1.07-2.62C34.91,92,34.28,91.78,33.66,91.53Z"
          transform="translate(-1.47 -1)"/>
    <path class="cls-1"
          d="M93.06,32.14l.39,1c.26.7.5,1.41.72,2.12a46,46,0,0,1,0,27.23q-.33,1.08-.72,2.13l-.39,1c-.41,1-.86,2.06-1.34,3.06-.33.67-.66,1.33-1,2S90,72,89.6,72.67c-.19.31-.38.62-.58.93-.4.62-.81,1.23-1.24,1.83s-.86,1.19-1.31,1.76-.92,1.14-1.4,1.7-1,1.09-1.48,1.62-1,1-1.55,1.56-1.08,1-1.63,1.47Q78.75,85,77,86.26a43.32,43.32,0,0,1-3.71,2.38c-.64.37-1.29.72-1.95,1.06s-1.32.66-2,1-1.36.6-2.05.87-1.4.53-2.11.77c-1.42.48-2.86.89-4.34,1.24h-.08A14.42,14.42,0,0,1,59.38,96,48,48,0,0,0,94.17,29.24a17.54,17.54,0,0,1-1.89,1.06C92.55,30.9,92.81,31.52,93.06,32.14Z"
          transform="translate(-1.47 -1)"/>
    <path class="cls-1"
          d="M124.79,31.67a9.46,9.46,0,0,0-2.37-3.28,10.3,10.3,0,0,0-3.33-2,10.77,10.77,0,0,0-7.48,0,10.3,10.3,0,0,0-3.33,2,9.59,9.59,0,0,0-2.37,3.28A11,11,0,0,0,105,36.3v25a11.1,11.1,0,0,0,.9,4.66,9.58,9.58,0,0,0,2.38,3.25,10.13,10.13,0,0,0,3.33,2,10.81,10.81,0,0,0,7.48,0,10.13,10.13,0,0,0,3.33-2A9.58,9.58,0,0,0,124.8,66a11.07,11.07,0,0,0,.9-4.66v-25a11,11,0,0,0-.91-4.63ZM121,61.29a5.51,5.51,0,0,1-1.72,4.4,6.08,6.08,0,0,1-7.76,0,5.51,5.51,0,0,1-1.72-4.4v-25a5.47,5.47,0,0,1,1.72-4.39,6,6,0,0,1,7.76,0A5.47,5.47,0,0,1,121,36.3Z"
          transform="translate(-1.47 -1)"/>
    <path class="cls-1"
          d="M145.86,54.66a1,1,0,0,1-1-.67l-10-27.84h-4.79V71.44h4.75V44a1,1,0,0,1,1-1H136a1,1,0,0,1,.95.66L147.1,71.44h4.65V26.15H147v27.5a1,1,0,0,1-1,1Z"
          transform="translate(-1.47 -1)"/>
    <path class="cls-1"
          d="M166.65,41.15a6.41,6.41,0,0,0-1.13-.94,5.77,5.77,0,0,0-1.38-.61,6.66,6.66,0,0,0-1.87-.22A5.38,5.38,0,0,0,157.08,42a5.54,5.54,0,0,0-.71,2.36,50.61,50.61,0,0,0-.19,5.26V62.42a28.41,28.41,0,0,0,.25,4.29,7.89,7.89,0,0,0,.76,2.48c1,1.78,2.61,2.65,5,2.65a6.23,6.23,0,0,0,3.11-.76,7.3,7.3,0,0,0,2.36-2.25,1,1,0,0,1,.84-.45h.13a1,1,0,0,1,1,1v6.65a5.43,5.43,0,0,1-.92,3.21,3.7,3.7,0,0,1-3.22,1.46,4.21,4.21,0,0,1-3.4-1.43,5,5,0,0,1-1-1.9h-4.76a11.44,11.44,0,0,0,1.09,3.36,9,9,0,0,0,2.2,2.78A8,8,0,0,0,162.36,85a10.28,10.28,0,0,0,2.9.46,9.71,9.71,0,0,0,4.16-.81,8.64,8.64,0,0,0,2.86-2.07,8,8,0,0,0,1.62-2.83,10.52,10.52,0,0,0,.52-3.18V39.77h-4.75v2a1,1,0,0,1-.65.94,1,1,0,0,1-1.12-.26C167.46,42,167.05,41.57,166.65,41.15Zm3,8.18V62.42a4.71,4.71,0,0,1-1.24,3.32,4.16,4.16,0,0,1-3.17,1.35,3.7,3.7,0,0,1-3.5-1.7,6.5,6.5,0,0,1-.83-3.3V49.73a7.23,7.23,0,0,1,.95-3.87,3.76,3.76,0,0,1,3.38-1.74,4,4,0,0,1,3.25,1.55A5.69,5.69,0,0,1,169.67,49.33Z"
          transform="translate(-1.47 -1)"/>
    <path class="cls-1"
          d="M188.13,26.15h-9V71.44h8.42c3.74,0,6.62-1,8.56-2.87S199,63.62,199,59.5V37.36c0-3.56-.94-6.36-2.78-8.3S191.67,26.15,188.13,26.15Zm6.13,34a7.8,7.8,0,0,1-1.43,5.14c-1,1.19-2.62,1.79-4.84,1.79h-3.12a1,1,0,0,1-1-1V31.51a1,1,0,0,1,1-1H188c2.33,0,4,.65,4.94,1.94a8.16,8.16,0,0,1,1.33,4.92Z"
          transform="translate(-1.47 -1)"/>
    <path class="cls-1"
          d="M224,37.1a15,15,0,0,0-.59-4.2,9,9,0,0,0-1.88-3.44,9.53,9.53,0,0,0-3.4-2.4,13.08,13.08,0,0,0-5.15-.91H204.1V71.44h8.22c4.11,0,7.11-1,8.92-3s2.76-5,2.76-8.89V56.9a12.33,12.33,0,0,0-1-5.49,6.31,6.31,0,0,0-3-2.89,1,1,0,0,1-.08-1.8,10.85,10.85,0,0,0,1.83-1.31A6.38,6.38,0,0,0,223,43.89a7,7,0,0,0,.78-2,14.34,14.34,0,0,0,.27-3Zm-4.56,17.33a22.35,22.35,0,0,1,.21,3.27c0,1.18-.05,2.28-.14,3.28h0a7.23,7.23,0,0,1-.86,2.94A5.09,5.09,0,0,1,216.48,66a8.05,8.05,0,0,1-3.69.71h-2.93a1,1,0,0,1-1-1V50.52a1,1,0,0,1,1-1h3a9,9,0,0,1,3.38.54,4.93,4.93,0,0,1,2.2,1.72A6.07,6.07,0,0,1,219.44,54.43Zm-1.13-11h0c-1,1.42-2.79,2.14-5.39,2.14h-3.06a1,1,0,0,1-1-1v-13a1,1,0,0,1,1-1h2.79c2.57,0,4.41.66,5.48,2a8.46,8.46,0,0,1,1.52,5.43A9.6,9.6,0,0,1,218.31,43.42Z"
          transform="translate(-1.47 -1)"/>
</svg>
