<?xml version="1.0"?>
<svg xmlns="http://www.w3.org/2000/svg" viewBox="0 0 32.37 32.34">
    <defs>
        <style>.cls-1{fill:none;stroke:#000;stroke-linejoin:round;stroke-width:0.5px;}.cls-2{fill:#fff;}</style>
    </defs>
    <title id="ongdb-world-1">ongdb-outline-32px</title>
    <path d="M31.13,2.12A4.62,4.62,0,0,0,27.64.45a4.7,4.7,0,0,0-2.93.93,4.27,4.27,0,0,0-1.45,5c-1.58,1.4-3.93,3.55-4.12,3.72s-1.44,1.27-2.73,2.44A3.75,3.75,0,0,0,12,11.56l-.17-.5c0-.1-.6-1.94-.66-2.05h-.05a1.45,1.45,0,1,0-.87.4l1,1.62.43.71a3.77,3.77,0,0,0-1.76,3.79c-.54,0-4.16-.13-4.17-.1a2.83,2.83,0,1,0,.14,1.86c1.31-.23,3.48-.65,3.64-.68l.68-.12A3.75,3.75,0,0,0,13.5,18.7c.06,1,.13,2,.13,2.1s.21,3.89.31,4.85a3.43,3.43,0,1,0,2.29-.37c-.46-1.56-1.18-3.89-1.24-4.07s-.39-1.33-.76-2.56a3.78,3.78,0,0,0,2.61-1.85l.77.38c.07,0,1.34.68,1.42.7l0,0a1.07,1.07,0,0,0,.88,1.06,1.09,1.09,0,0,0,1.2-.7,1.07,1.07,0,0,0-1.85-1l-1.36-.31-1-.23a3.71,3.71,0,0,0,0-3.39l2.54-1.41c.28-.16,5.32-2.88,5.81-3.24a4.74,4.74,0,0,0,5.11-.35,4.23,4.23,0,0,0,.75-6.14Z"/>
    <path d="M2,11.24c.07-.24.15-.47.23-.7s.09-.23.13-.34c.14-.34.28-.68.44-1l.33-.65.36-.63.2-.3c.13-.21.26-.4.4-.6s.28-.39.43-.58.3-.37.46-.55l.48-.53q.25-.27.51-.51l.53-.49c.37-.31.74-.61,1.14-.89A13.76,13.76,0,0,1,8.82,2.7l.64-.36L10.11,2c.23-.1.45-.2.68-.28l.69-.26a14.28,14.28,0,0,1,1.42-.4c.25-.06.49-.11.74-.15L14,.88l.75-.1a15.64,15.64,0,0,1,3.06,0l.75.1.37.06c.25,0,.49.09.73.15a14.46,14.46,0,0,1,1.43.4l.68.26.68.28.31.14a4.6,4.6,0,0,1,.4-.58A15.71,15.71,0,0,0,.75,13.42,3.36,3.36,0,0,1,1.54,13,14.89,14.89,0,0,1,2,11.24Z"/>
    <path d="M10.79,29.64l-.68-.28L9.46,29c-.22-.11-.43-.22-.64-.35a13.86,13.86,0,0,1-1.21-.78A14,14,0,0,1,6.47,27c-.18-.15-.35-.32-.53-.48L5.43,26,5,25.5c-.16-.18-.31-.37-.46-.56s-.29-.38-.43-.57-.27-.4-.4-.6l-.2-.31q-.18-.3-.36-.63l-.33-.64c-.15-.33-.3-.66-.44-1,0-.11-.08-.22-.13-.34S2,20.38,2,20.15a3.54,3.54,0,0,1-.84-.38,15.73,15.73,0,0,0,10.62,11,5.24,5.24,0,0,1-.35-.85Z"/>
    <path d="M30.23,10.2c.05.12.09.23.13.34s.16.46.24.7a15.2,15.2,0,0,1,0,8.91l-.24.7c0,.11-.08.23-.13.34-.13.34-.28.67-.44,1s-.21.44-.33.65-.23.42-.36.62a3.21,3.21,0,0,1-.19.31l-.4.6c-.14.2-.29.39-.44.57s-.3.38-.45.56-.32.36-.49.53-.33.34-.51.51-.35.33-.53.48a11.93,11.93,0,0,1-1.13.89,12,12,0,0,1-1.22.78l-.63.35c-.22.12-.44.22-.66.32l-.67.28c-.23.09-.46.18-.69.25a14.34,14.34,0,0,1-1.42.41h0a4.51,4.51,0,0,1-.43.81A15.72,15.72,0,0,0,30.6,9.25,5.45,5.45,0,0,1,30,9.6C30.07,9.79,30.15,10,30.23,10.2Z"/>
    <path d="M11.37,29.81l.14.15Z"/>
</svg>
