<?xml version="1.0" encoding="UTF-8" standalone="no"?>
<!DOCTYPE svg PUBLIC "-//W3C//DTD SVG 1.1//EN" "http://www.w3.org/Graphics/SVG/1.1/DTD/svg11.dtd">
<svg xmlns:xl="http://www.w3.org/1999/xlink" version="1.1" xmlns="http://www.w3.org/2000/svg" xmlns:dc="http://purl.org/dc/elements/1.1/" viewBox="1444.2439 537.61234 279.9458 276.52913" width="279.9458" height="276.52913">
  <defs/>
  <metadata> Produced by OmniGraffle 7.18.1\n2021-02-23 02:10:55 +0000</metadata>
  <g id="Canvas_1" stroke-dasharray="none" fill-opacity="1" fill="none" stroke="none" stroke-opacity="1">
    <title>Canvas 1</title>
    <g id="Canvas_1_Layer_1">
      <title>Layer 1</title>
      <g id="Graphic_693"/>
      <g id="Graphic_694"/>
      <g id="Graphic_695"/>
      <g id="Graphic_696"/>
      <g id="Graphic_697">
        <path d="M 1710.4724 555.69754 C 1703.0756 546.8413 1692.1993 541.6312 1680.6624 541.41754 C 1671.6664 541.1962 1662.8586 544.0147 1655.6624 549.41754 C 1642.449 559.10716 1637.3677 576.44916 1643.2624 591.73754 C 1629.7324 603.73754 1609.6424 622.06754 1608.0524 623.49754 C 1606.9124 624.49754 1595.7824 634.39754 1584.7224 644.31754 C 1575.3062 633.3916 1559.7444 630.11545 1546.7224 636.31754 C 1545.9824 634.05754 1545.4124 632.31754 1545.3324 632.05754 C 1545.0524 631.19754 1540.1424 615.46754 1539.6224 614.59754 L 1539.2324 614.59754 C 1543.133 610.8515 1544.1586 605.0107 1541.7675 600.1599 C 1539.3764 595.30904 1534.1192 592.56524 1528.7724 593.37754 C 1522.142 594.3982 1517.5257 600.5067 1518.3538 607.1638 C 1519.1818 613.82094 1525.154 618.6124 1531.8324 617.97754 C 1534.8324 622.97754 1539.8324 631.21754 1540.1924 631.83754 C 1540.3924 632.17754 1541.9524 634.83754 1543.8124 637.90754 C 1532.7428 644.657 1526.824 657.40595 1528.8124 670.21754 C 1524.1824 669.96754 1493.3024 669.16754 1493.2024 669.40754 C 1489.052 659.7381 1479.1393 653.8486 1468.6624 654.82754 C 1456.458 655.9972 1447.0505 666.0989 1446.7512 678.35555 C 1446.4519 690.6122 1455.3551 701.161 1467.488 702.9249 C 1479.6207 704.6889 1491.1591 697.112 1494.3624 685.27754 C 1505.5924 683.27754 1524.0724 679.74754 1525.4624 679.48754 L 1531.3024 678.42754 C 1536.3665 689.7204 1547.4885 697.0806 1559.8624 697.32754 C 1560.4224 706.1875 1560.9824 714.2775 1561.0324 715.2075 C 1561.1524 717.1275 1562.8124 748.4775 1563.6624 756.6775 C 1551.189 763.57295 1545.484 778.4415 1550.1432 791.9108 C 1554.8025 805.38 1568.4755 813.5453 1582.5434 811.2595 C 1596.6113 808.97375 1606.9958 796.8996 1607.151 782.6481 C 1607.3062 768.3965 1597.1872 756.0991 1583.1724 753.5075 C 1579.2424 740.1775 1573.1724 720.3075 1572.6624 718.7475 C 1572.3324 717.6475 1569.3224 707.3875 1566.1724 696.84754 C 1575.5475 695.16414 1583.6892 689.4005 1588.3924 681.11754 C 1591.3924 682.61754 1594.6924 684.20754 1595.0124 684.35754 C 1595.6024 684.65754 1606.4224 690.11754 1607.1524 690.28754 L 1607.3624 690.09754 C 1607.3366 694.5534 1610.5311 698.377 1614.9206 699.1441 C 1619.31 699.9111 1623.612 697.3975 1625.099 693.197 C 1626.5858 688.9964 1624.8233 684.3361 1620.9288 682.1708 C 1617.0343 680.0055 1612.1457 680.9678 1609.3624 684.44754 C 1605.1924 683.44754 1598.2824 681.88754 1597.7524 681.76754 C 1597.2224 681.64754 1592.9724 680.62754 1589.1324 679.76754 C 1591.3966 675.2874 1592.575 670.33735 1592.5724 665.31754 C 1592.5734 660.3011 1591.395 655.3547 1589.1324 650.87754 C 1599.7524 644.97754 1609.6824 639.41754 1610.7824 638.80754 C 1613.2024 637.47754 1656.2024 614.23754 1660.4524 611.15754 C 1674.328 618.7738 1691.3702 617.6017 1704.0724 608.15754 C 1712.1445 602.2397 1717.4106 593.2476 1718.6227 583.31226 C 1719.8348 573.3769 1716.885 563.3825 1710.4724 555.69754 Z" stroke="#babbbb" stroke-linecap="butt" stroke-linejoin="round" stroke-width="5"/>
      </g>
      <g id="Graphic_698"/>
      <g id="Graphic_699"/>
      <g id="Graphic_700"/>
      <g id="Graphic_703"/>
      <g id="Graphic_704"/>
      <g id="Graphic_705"/>
      <g id="Graphic_706"/>
      <g id="Graphic_707"/>
      <g id="Graphic_708"/>
      <g id="Graphic_709"/>
      <g id="Graphic_710"/>
      <g id="Graphic_711"/>
      <g id="Graphic_712"/>
      <g id="Graphic_713"/>
      <g id="Graphic_714"/>
      <g id="Graphic_715"/>
      <g id="Graphic_716"/>
      <g id="Graphic_717"/>
      <g id="Graphic_718"/>
      <g id="Graphic_719"/>
      <g id="Graphic_720"/>
      <g id="Graphic_721"/>
      <g id="Graphic_722"/>
      <g id="Graphic_723"/>
      <g id="Graphic_724"/>
      <g id="Graphic_725"/>
      <g id="Graphic_726"/>
      <g id="Graphic_727"/>
      <g id="Graphic_728"/>
      <g id="Graphic_729"/>
      <g id="Graphic_730"/>
      <g id="Graphic_731"/>
      <g id="Graphic_732"/>
      <g id="Graphic_733"/>
      <g id="Graphic_735"/>
      <g id="Graphic_739"/>
      <g id="Graphic_740"/>
      <g id="Graphic_741"/>
      <g id="Graphic_743"/>
      <g id="Graphic_747">
        <path d="M 1461.4124 633.57754 C 1462.039 631.57754 1462.7057 629.5942 1463.4124 627.62754 C 1463.7724 626.62754 1464.1424 625.62754 1464.5224 624.70754 C 1465.6624 621.7942 1466.909 618.9409 1468.2624 616.14754 C 1469.1957 614.2742 1470.1457 612.43754 1471.1124 610.63754 C 1472.1124 608.81754 1473.1124 607.03754 1474.1924 605.27754 C 1474.7324 604.39754 1475.2724 603.51754 1475.8324 602.65754 C 1476.9457 600.9309 1478.0957 599.22754 1479.2824 597.54754 C 1480.469 595.86754 1481.6957 594.2309 1482.9624 592.63754 C 1484.229 591.0309 1485.5324 589.4509 1486.8724 587.89754 C 1488.2124 586.35754 1489.5924 584.83754 1491.0024 583.35754 C 1492.4124 581.87754 1493.8724 580.42754 1495.3524 579.00754 C 1496.8324 577.58754 1498.3524 576.21754 1499.8924 574.87754 C 1502.9924 572.19754 1506.2224 569.65754 1509.5624 567.28754 C 1512.9024 564.91754 1516.3724 562.63754 1519.9524 560.63754 C 1521.7324 559.63754 1523.5524 558.63754 1525.3924 557.63754 C 1527.2324 556.63754 1529.0924 555.79754 1530.9824 554.94754 C 1532.8724 554.09754 1534.7924 553.27754 1536.7324 552.51754 C 1538.6724 551.75754 1540.6624 551.03754 1542.6624 550.36754 C 1546.6474 549.0109 1550.6994 547.8594 1554.8024 546.91754 C 1556.869 546.43754 1558.9524 546.0109 1561.0524 545.63754 C 1562.0524 545.44754 1563.1624 545.27754 1564.2224 545.10754 C 1566.3424 544.78754 1568.4757 544.51754 1570.6224 544.29754 C 1579.3269 543.41755 1588.0979 543.41755 1596.8024 544.29754 C 1598.949 544.51754 1601.0824 544.78754 1603.2024 545.10754 C 1604.2624 545.27754 1605.3224 545.44754 1606.3724 545.63754 C 1608.4724 546.0109 1610.5557 546.43754 1612.6224 546.91754 C 1616.7253 547.8594 1620.7773 549.0109 1624.7624 550.36754 C 1626.7624 551.03754 1628.7124 551.74754 1630.6424 552.51754 C 1632.5724 553.28754 1634.5024 554.08754 1636.3924 554.94754 L 1639.0224 556.16754 C 1640.061 554.4244 1641.217 552.7539 1642.4824 551.16754 C 1604.0313 532.4271 1558.9466 533.1546 1521.1202 553.12595 C 1483.2938 573.0973 1457.2644 609.9161 1451.0524 652.23754 C 1453.095 650.70245 1455.3481 649.4698 1457.7424 648.57754 C 1458.6644 643.5086 1459.89 638.4996 1461.4124 633.57754 Z" fill="#bbb"/>
      </g>
      <g id="Graphic_748">
        <path d="M 1536.7324 790.7575 C 1534.7924 789.9975 1532.8757 789.1875 1530.9824 788.3275 C 1529.089 787.4675 1527.2257 786.5709 1525.3924 785.6375 C 1523.5524 784.6875 1521.7324 783.7075 1519.9524 782.6375 C 1516.3724 780.5875 1512.9524 778.3575 1509.5624 775.9775 C 1506.1724 773.5975 1502.9924 771.0675 1499.8924 768.3875 C 1498.3524 767.0475 1496.8324 765.6675 1495.3524 764.2575 C 1493.8724 762.8475 1492.4224 761.3875 1491.0024 759.9075 C 1489.5824 758.4275 1488.2124 756.9075 1486.8724 755.3675 C 1485.5324 753.8275 1484.2324 752.2375 1482.9624 750.6275 C 1481.6924 749.0175 1480.4624 747.3675 1479.2824 745.6975 C 1478.1024 744.0275 1476.9424 742.3175 1475.8324 740.5875 C 1475.2724 739.7275 1474.7324 738.8475 1474.1924 737.9675 C 1473.1224 736.2075 1472.0924 734.4275 1471.1124 732.6075 C 1470.1324 730.7875 1469.1824 728.9575 1468.2824 727.0875 C 1466.949 724.2942 1465.7024 721.4409 1464.5424 718.5275 C 1464.1624 717.5275 1463.7924 716.5875 1463.4324 715.6075 C 1462.7124 713.6575 1462.0524 711.6875 1461.4324 709.6975 C 1458.905 708.9179 1456.4834 707.8297 1454.2224 706.4575 C 1466.3457 751.1798 1500.6403 786.5098 1544.9824 799.9575 C 1543.7298 797.6358 1542.7243 795.1891 1541.9824 792.6575 C 1540.2124 792.0875 1538.4624 791.4475 1536.7324 790.7575 Z" fill="#bbb"/>
      </g>
      <g id="Graphic_749">
        <path d="M 1702.7824 624.70754 C 1703.1624 625.70754 1703.5324 626.64754 1703.8924 627.62754 C 1704.6124 629.58754 1705.279 631.5709 1705.8924 633.57754 C 1713.5589 658.3718 1713.5589 684.9033 1705.8924 709.6975 C 1705.2657 711.6975 1704.599 713.6809 1703.8924 715.6475 C 1703.5324 716.6475 1703.1624 717.6475 1702.7824 718.5675 C 1701.6424 721.4809 1700.3957 724.3342 1699.0424 727.1275 C 1698.1224 729.0009 1697.179 730.8375 1696.2124 732.6375 C 1695.2124 734.4575 1694.2124 736.2375 1693.1324 737.9975 C 1692.5924 738.8775 1692.0524 739.7575 1691.4924 740.6175 C 1690.3857 742.3509 1689.2357 744.0542 1688.0424 745.7275 C 1686.849 747.4009 1685.6224 749.0375 1684.3624 750.6375 C 1683.0957 752.2509 1681.7924 753.8309 1680.4524 755.3775 C 1679.1124 756.9175 1677.7324 758.4375 1676.3224 759.9175 C 1674.9124 761.3975 1673.4524 762.8475 1671.9724 764.2675 C 1670.4924 765.6875 1668.9724 767.0575 1667.4324 768.3975 C 1664.3324 771.0775 1661.1024 773.6175 1657.7624 775.9875 C 1654.4224 778.3575 1650.9524 780.6375 1647.3724 782.6375 C 1645.5924 783.6375 1643.7724 784.6375 1641.9324 785.6375 C 1640.0924 786.6375 1638.2324 787.4775 1636.3424 788.3275 C 1634.4524 789.1775 1632.5324 789.9975 1630.5924 790.7575 C 1628.6524 791.5175 1626.7024 792.2375 1624.7124 792.9075 C 1620.7273 794.2642 1616.6753 795.4157 1612.5724 796.3575 L 1612.3524 796.3575 C 1611.351 798.7835 1610.101 801.0992 1608.6224 803.2675 C 1648.9106 795.5681 1683.465 769.8654 1702.4256 733.49344 C 1721.3862 697.1215 1722.6706 654.0753 1705.9124 616.63754 C 1704.2093 617.7311 1702.4392 618.71636 1700.6124 619.58754 C 1701.3724 621.24754 1702.1024 622.96754 1702.7824 624.70754 Z" fill="#bbb"/>
      </g>
      <g id="Graphic_750"/>
      <g id="Graphic_752">
        <path d="M 1541.9824 792.6975 L 1542.6124 792.9075 Z" fill="white"/>
      </g>
    </g>
  </g>
</svg>
